<svg xmlns="http://www.w3.org/2000/svg" xmlns:xlink="http://www.w3.org/1999/xlink" viewBox="0,0,256,256" width="50px" height="50px" fill-rule="nonzero"><g fill="#ffffff" fill-rule="nonzero" stroke="none" stroke-width="1" stroke-linecap="butt" stroke-linejoin="miter" stroke-miterlimit="10" stroke-dasharray="" stroke-dashoffset="0" font-family="none" font-weight="none" font-size="none" text-anchor="none" style="mix-blend-mode: normal"><g transform="scale(5.12,5.12)"><path d="M25,2c-12.683,0 -23,10.318 -23,23c0,12.682 10.317,23 23,23c12.683,0 23,-10.318 23,-23c0,-12.682 -10.317,-23 -23,-23zM21,10h2v3h2v-3h2v3.01563c2.064,0.092 6.90039,0.78177 6.90039,5.88477c0,4.1 -3.50117,5.20039 -4.20117,5.40039v0.09961c1.5,0.2 5.10156,1.59883 5.10156,5.79883c0,6.078 -5.49978,6.72797 -7.80078,6.79297v3.00781h-2v-3h-2v3h-2v-3h-5v-24h5zM18.30078,14.90039v8.59961h7.89844c0.9,0 1.70039,-0.10078 2.40039,-0.30078c0.7,-0.2 1.20117,-0.49844 1.70117,-0.89844c0.4,-0.4 0.8,-0.80078 1,-1.30078c0.2,-0.5 0.29883,-0.99961 0.29883,-1.59961c0,-3 -1.80039,-4.5 -5.40039,-4.5zM18.30078,25.5v9.59961h7.89844c0.9,0 1.70039,-0.09922 2.40039,-0.19922c0.8,-0.1 1.4,-0.40078 2,-0.80078c0.6,-0.4 1.00039,-0.9 1.40039,-1.5c0.3,-0.6 0.5,-1.40039 0.5,-2.40039c0,-1.5 -0.49961,-2.7 -1.59961,-3.5c-1.1,-0.8 -2.70117,-1.19922 -4.70117,-1.19922z"></path></g></g></svg>