<svg width="38" height="31" viewBox="0 0 38 31" fill="none" xmlns="http://www.w3.org/2000/svg">
<path d="M2.02559 0.0104802C1.39559 0.120066 0.831427 0.497243 0.457223 1.05904C0.0830191 1.62083 -0.0705772 2.32122 0.0302236 3.00613C0.131024 3.69104 0.477965 4.30437 0.994723 4.71119C1.51148 5.118 2.15573 5.28499 2.78573 5.1754H9.91204L10.3396 6.46663L12.2875 12.9228L14.2353 19.3789C14.4254 20.0504 15.233 20.6702 15.8506 20.6702H32.4787C33.1438 20.6702 33.904 20.0504 34.094 19.3789L37.9422 6.46663C38.1322 5.79519 37.8472 5.1754 37.1821 5.1754H16.0882L14.2828 1.45666C14.0906 1.02983 13.7937 0.668959 13.4248 0.413796C13.056 0.158633 12.6296 0.0190721 12.1925 0.0104802L2.69071 0.0104802C2.54848 -0.00349341 2.40537 -0.00349341 2.26313 0.0104802C2.1682 0.00427674 2.07301 0.00427674 1.97808 0.0104802L2.02559 0.0104802ZM17.0384 25.8351C15.7081 25.8351 14.6629 26.9714 14.6629 28.4175C14.6629 29.8637 15.7081 31 17.0384 31C18.3686 31 19.4138 29.8637 19.4138 28.4175C19.4138 26.9714 18.3686 25.8351 17.0384 25.8351ZM31.291 25.8351C29.9607 25.8351 28.9155 26.9714 28.9155 28.4175C28.9155 29.8637 29.9607 31 31.291 31C32.6212 31 33.6664 29.8637 33.6664 28.4175C33.6664 26.9714 32.6212 25.8351 31.291 25.8351Z" fill="white"/>
</svg>
