<?xml version="1.0" encoding="UTF-8" standalone="no"?>
<!-- Created with Inkscape (http://www.inkscape.org/) -->

<svg
   version="1.1"
   id="svg182"
   width="39.145679"
   height="27.402325"
   viewBox="0 0 39.145679 27.402325"
   sodipodi:docname="1000_F_270144452_SQIlWLuerDdOAIHXTGw7JdHkmaaW75ZP.jpg"
   xmlns:inkscape="http://www.inkscape.org/namespaces/inkscape"
   xmlns:sodipodi="http://sodipodi.sourceforge.net/DTD/sodipodi-0.dtd"
   xmlns="http://www.w3.org/2000/svg"
   xmlns:svg="http://www.w3.org/2000/svg">
  <defs
     id="defs186" />
  <sodipodi:namedview
     id="namedview184"
     pagecolor="#ffffff"
     bordercolor="#666666"
     borderopacity="1.0"
     inkscape:showpageshadow="2"
     inkscape:pageopacity="0.0"
     inkscape:pagecheckerboard="0"
     inkscape:deskcolor="#d1d1d1"
     showgrid="false" />
  <g
     inkscape:groupmode="layer"
     inkscape:label="Image"
     id="g188"
     transform="translate(-13.230507,-23.118926)">
    <path
       d="m 15.045857,50.13212 c -0.45065,-0.33897 0.35643,-1.12438 6.26309,-6.09491 l 6.7804,-5.70579 2.36461,2.08493 2.36461,2.08492 2.38915,-2.06097 2.38916,-2.06098 3.24454,2.72452 c 10.82852,9.09298 10.31065,8.61382 9.75759,9.02828 -0.40073,0.30031 -4.45849,0.38913 -17.77754,0.38913 -13.32008,0 -17.37634,-0.0888 -17.77561,-0.38913 z M 13.230507,36.64086 V 25.56214 l 0.87686,0.72809 c 0.48228,0.40045 3.46303,2.94465 6.6239,5.65379 l 5.74704,4.9257 -6.48586,5.42493 c -3.56722,2.98371 -6.54798,5.42492 -6.6239,5.42492 -0.0759,0 -0.13804,-4.98542 -0.13804,-11.07871 z m 32.61406,5.78249 c -3.52543,-2.9575 -6.36928,-5.49361 -6.31966,-5.6358 0.0496,-0.14219 2.93405,-2.69887 6.40987,-5.6815 l 6.31966,-5.42298 0.0862,5.59078 c 0.0474,3.07492 0.0474,8.05137 0,11.05877 l -0.0862,5.468 z M 23.695187,31.56359 c -6.79236,-5.73868 -9.06288,-7.8252 -8.7986,-8.08556 0.45319,-0.44647 35.21897,-0.49273 35.93328,-0.0478 0.30426,0.1895 0.36027,0.39148 0.158,0.56979 -0.17234,0.15192 -4.32386,3.65618 -9.22561,7.78723 l -8.91226,7.511 z"
       style="fill:white;stroke-width:0.313631"
       id="path357" />
  </g>
</svg>
