<svg width="582" height="640" viewBox="0 0 582 640" fill="none" xmlns="http://www.w3.org/2000/svg">
<g clip-path="url(#clip0_16_12)">
<path d="M438.004 152.366H435.595V56.2715C435.595 41.521 431.571 27.3746 424.407 16.9444C417.243 6.51425 407.527 0.654621 397.396 0.654602H257.568C252.551 0.654582 247.584 2.09314 242.95 4.88813C238.315 7.68313 234.104 11.7798 230.557 16.9443C227.01 22.1088 224.196 28.24 222.277 34.9877C220.357 41.7354 219.369 48.9676 219.369 56.2714V583.453C219.369 590.757 220.357 597.989 222.276 604.737C224.196 611.485 227.01 617.616 230.557 622.78C234.104 627.945 238.315 632.042 242.949 634.837C247.584 637.632 252.551 639.07 257.567 639.07H397.396C407.527 639.07 417.243 633.211 424.407 622.781C431.571 612.35 435.595 598.204 435.595 583.453V220.768H438.004L438.004 152.366Z" fill="#3F3D56"/>
<path d="M398.938 15.1242H380.685C381.525 18.1205 381.845 21.3713 381.618 24.5903C381.392 27.8093 380.625 30.8977 379.385 33.5834C378.145 36.2692 376.471 38.4698 374.51 39.9915C372.548 41.5132 370.36 42.3092 368.137 42.3095H288.031C285.809 42.3092 283.62 41.5132 281.659 39.9915C279.698 38.4698 278.023 36.2692 276.784 33.5834C275.544 30.8977 274.777 27.8093 274.55 24.5903C274.323 21.3713 274.644 18.1205 275.483 15.1242H258.435C250.87 15.1242 243.614 19.5001 238.264 27.2892C232.915 35.0784 229.909 45.6427 229.909 56.6582V583.067C229.909 588.521 230.647 593.922 232.08 598.961C233.514 604 235.615 608.579 238.264 612.436C240.913 616.292 244.058 619.352 247.519 621.439C250.98 623.526 254.689 624.601 258.435 624.601H398.938C402.684 624.601 406.393 623.526 409.854 621.439C413.315 619.352 416.46 616.292 419.109 612.436C421.758 608.579 423.859 604 425.293 598.961C426.726 593.922 427.464 588.521 427.464 583.067V56.6582C427.464 51.2039 426.726 45.803 425.293 40.7638C423.859 35.7247 421.758 31.146 419.109 27.2892C416.46 23.4324 413.315 20.3731 409.854 18.2858C406.393 16.1985 402.684 15.1242 398.938 15.1242Z" fill="white"/>
<path d="M357.791 243.386C371.766 243.386 383.095 241.815 383.095 239.877C383.095 237.939 371.766 236.368 357.791 236.368C343.816 236.368 332.486 237.939 332.486 239.877C332.486 241.815 343.816 243.386 357.791 243.386Z" fill="#E6E6E6"/>
<path d="M582 88.26H349.048V199.605H357.872V228.727L377.872 199.605H582V88.26Z" fill="#5C7C8D"/>
<path d="M480.905 125.966H374.976V130.646H480.905V125.966Z" fill="white"/>
<path d="M559.602 142.157H374.976V146.838H559.602V142.157Z" fill="white"/>
<path d="M559.421 158.349H374.976V163.029H559.421V158.349Z" fill="white"/>
<path d="M522.487 424.092H336.536V512.972H343.58V536.217L359.545 512.972H522.487V424.092Z" fill="#5C7C8D"/>
<path d="M441.789 454.19H357.233V457.926H441.789V454.19Z" fill="white"/>
<path d="M504.608 467.115H357.233V470.851H504.608V467.115Z" fill="white"/>
<path d="M504.464 480.039H357.233V483.776H504.464V480.039Z" fill="white"/>
<path d="M343.515 547.919C354.671 547.919 363.714 546.665 363.714 545.118C363.714 543.571 354.671 542.317 343.515 542.317C332.36 542.317 323.316 543.571 323.316 545.118C323.316 546.665 332.36 547.919 343.515 547.919Z" fill="#E6E6E6"/>
<path d="M287.903 373.213C301.878 373.213 313.207 371.643 313.207 369.705C313.207 367.767 301.878 366.196 287.903 366.196C273.927 366.196 262.598 367.767 262.598 369.705C262.598 371.643 273.927 373.213 287.903 373.213Z" fill="#E6E6E6"/>
<path d="M132.809 262.848H296.629V341.151H290.423V361.629L276.358 341.151H132.809V262.848Z" fill="#5C7C8D"/>
<path d="M224.294 288.762H149.801V292.054H224.294V288.762Z" fill="white"/>
<path d="M279.636 300.148H149.801V303.44H279.636V300.148Z" fill="white"/>
<path d="M279.509 311.535H149.801V314.826H279.509V311.535Z" fill="white"/>
<path d="M53.009 453.848C53.7945 455.818 55.0852 457.252 56.597 457.836C58.1088 458.42 59.718 458.105 61.0706 456.961C62.4231 455.818 63.4082 453.939 63.8092 451.737C64.2102 449.536 63.9942 447.193 63.2087 445.224C63.0438 444.821 62.8581 444.438 62.6532 444.076L67.6143 392.593L67.7628 391.051L68.7706 380.546L68.9191 379.031L68.37 379.069L58.7583 379.709L56.1808 379.878L55.8578 389.462L54.0297 443.343C53.0746 444.673 52.4546 446.433 52.2695 448.338C52.0844 450.244 52.3448 452.184 53.009 453.848Z" fill="#A0616A"/>
<path d="M67.7343 391.519L55.5293 389.889C54.8963 389.802 54.3126 389.354 53.9055 388.643C53.4984 387.931 53.3009 387.015 53.3562 386.092L55.62 349.138C55.7297 347.343 56.0856 345.599 56.6666 344.008C57.2475 342.416 58.0418 341.011 59.0024 339.875C59.963 338.739 61.0703 337.895 62.259 337.392C63.4476 336.89 64.6933 336.74 65.9224 336.952C67.1515 337.163 68.339 337.731 69.4146 338.622C70.4903 339.514 71.4322 340.71 72.1847 342.141C72.9371 343.571 73.4849 345.207 73.7954 346.951C74.106 348.696 74.1731 350.513 73.9928 352.296L70.3331 388.543C70.249 389.373 69.9629 390.132 69.5268 390.681C69.0906 391.23 68.5335 391.533 67.957 391.534C67.8834 391.534 67.8089 391.53 67.7343 391.519Z" fill="#CCCCCC"/>
<path d="M58.4847 361.663C57.2503 356.572 57.1931 351.033 58.3218 345.89C59.4505 340.747 61.7032 336.283 64.7366 333.177C69.339 328.592 75.6371 326.946 82.4196 338.703C95.9846 362.215 99.5374 388.079 99.5374 388.079L71.7614 394.662C71.7614 394.662 62.3144 377.851 58.4847 361.663Z" fill="#CCCCCC"/>
<path d="M103.408 626.514H111.327L115.094 582.039L103.406 582.04L103.408 626.514Z" fill="#A0616A"/>
<path d="M126.6 637.219L101.711 637.221L101.71 623.22L118.92 623.219C119.928 623.219 120.927 623.508 121.859 624.07C122.79 624.632 123.637 625.455 124.35 626.494C125.063 627.532 125.629 628.765 126.015 630.121C126.401 631.478 126.6 632.932 126.6 634.4L126.6 637.219Z" fill="#2F2E41"/>
<path d="M38.2994 616.458L45.8185 620.077L58.9828 579.572L47.8856 574.231L38.2994 616.458Z" fill="#A0616A"/>
<path d="M58.0118 637.221L34.3802 625.849L37.398 612.555L53.7377 620.418C54.6953 620.879 55.5812 621.61 56.3448 622.569C57.1084 623.529 57.7347 624.697 58.188 626.009C58.6413 627.321 58.9127 628.75 58.9868 630.214C59.0608 631.679 58.936 633.15 58.6195 634.544L58.0118 637.221Z" fill="#2F2E41"/>
<path d="M83.5293 318.685C91.2177 312.566 94.0433 298.531 89.8404 287.337C85.6375 276.142 75.9978 272.028 68.3094 278.148C60.621 284.267 57.7954 298.302 61.9983 309.497C66.2011 320.691 75.8409 324.805 83.5293 318.685Z" fill="#A0616A"/>
<path d="M89.8105 614.133L82.4559 543.459C82.3775 542.705 82.1215 542.014 81.7318 541.504C81.3421 540.994 80.8428 540.697 80.3193 540.664C79.7958 540.63 79.2807 540.863 78.8619 541.321C78.4431 541.78 78.1467 542.436 78.0234 543.177L66.8239 610.529C66.6474 611.561 66.2125 612.459 65.6044 613.048C64.9964 613.637 64.2591 613.874 63.5373 613.712L32.6446 606.483C32.235 606.387 31.8442 606.165 31.4985 605.831C31.1528 605.497 30.8602 605.059 30.6404 604.547C30.4205 604.035 30.2786 603.46 30.224 602.861C30.1694 602.262 30.2035 601.653 30.324 601.075L70.6062 407.712C70.7207 407.162 70.7343 406.578 70.6456 406.017L69.3044 397.556C69.1571 396.638 69.225 395.675 69.4974 394.821C69.7698 393.966 70.231 393.269 70.8073 392.84C76.2925 388.765 90.1828 380.293 100.671 389.573C101.011 389.876 101.306 390.275 101.536 390.749C101.767 391.222 101.93 391.759 102.014 392.326L133.482 607.669C133.568 608.254 133.567 608.86 133.48 609.445C133.393 610.03 133.222 610.582 132.978 611.063C132.733 611.545 132.422 611.946 132.063 612.239C131.705 612.532 131.308 612.712 130.898 612.765L92.9439 617.714C92.8564 617.725 92.7695 617.73 92.6834 617.73C91.9885 617.729 91.3169 617.365 90.7901 616.705C90.2632 616.045 89.9158 615.133 89.8105 614.133Z" fill="#2F2E41"/>
<path d="M65.3992 282.096C66.5952 281.049 67.6566 279.706 68.5356 278.127C68.9691 277.33 69.2544 276.384 69.364 275.379C69.4737 274.375 69.4041 273.347 69.1619 272.393C68.3603 269.818 65.9783 269.003 64.1328 269.88C62.2872 270.758 60.8613 272.863 59.5125 274.897C58.3243 276.688 57.1022 278.557 56.5386 280.908C55.975 283.259 56.2645 286.239 57.6664 287.665C59.0421 289.065 61.02 288.492 62.3431 286.989C63.6663 285.485 64.4853 283.255 65.2663 281.092L65.3992 282.096Z" fill="#2F2E41"/>
<path d="M60.0258 275.514C59.9379 269.005 54.8424 264.339 50.442 265.492C46.0415 266.645 42.659 272.108 40.9658 278.133C37.3885 290.863 40.074 305.388 43.5209 318.195C46.9678 331.001 51.2334 344.001 50.7306 357.736C50.3908 365.16 48.68 372.313 45.779 378.439C42.878 384.565 38.8945 389.437 34.2493 392.539C39.2156 395.816 45.1519 392.431 49.3251 387.321C58.5933 375.973 62.1708 355.771 57.8265 339.314C55.6838 331.196 51.9076 324.252 48.9595 316.689C46.0114 309.126 43.8484 300.213 45.3705 291.804C46.8925 283.395 53.37 276.584 58.9079 279.842L60.0258 275.514Z" fill="#2F2E41"/>
<path d="M76.8708 308.667C75.4879 305.264 74.0916 300.797 76.6201 297.822C77.1699 297.205 77.7988 296.754 78.47 296.495C79.1411 296.237 79.841 296.176 80.5285 296.318C83.3787 296.818 86.4823 297.024 89.2408 295.516C90.2754 294.998 91.2279 294.182 92.0418 293.117C92.8557 292.052 93.5143 290.76 93.9786 289.318C95.4028 284.405 93.6194 278.435 90.6421 275.329C88.8207 273.498 86.6685 272.491 84.4555 272.434C82.2425 272.377 80.0672 273.272 78.2024 275.008C74.3462 272.529 69.6673 273.631 66.164 277.045C62.6607 280.459 60.2634 285.926 58.9611 291.764C57.7615 296.788 57.5549 302.202 58.365 307.39C59.0169 310.998 60.2565 314.325 61.9787 317.089C63.701 319.852 65.8552 321.97 68.259 323.264C69.1954 323.802 70.2124 323.971 71.208 323.756C72.2037 323.541 73.143 322.949 73.9319 322.039C73.9319 322.039 76.1186 319.259 76.8028 315.912C77.3283 313.341 77.6096 310.485 76.8708 308.667Z" fill="#2F2E41"/>
<path d="M123.936 329.279C123.857 329.786 123.805 330.302 123.782 330.821L96.0333 354.129L89.2886 348.476L82.0984 362.181L93.3705 373.878C94.2811 374.823 95.3778 375.313 96.4957 375.273C97.6136 375.233 98.6926 374.667 99.5705 373.658L128.184 340.792C129.475 341.488 130.882 341.595 132.216 341.099C133.55 340.603 134.749 339.527 135.653 338.015C136.557 336.502 137.123 334.625 137.276 332.633C137.43 330.641 137.163 328.627 136.511 326.861C135.86 325.095 134.854 323.66 133.629 322.746C132.403 321.832 131.015 321.483 129.65 321.746C128.285 322.008 127.007 322.869 125.987 324.215C124.966 325.561 124.251 327.327 123.936 329.279Z" fill="#A0616A"/>
<path d="M95.1056 355.233L86.1374 372.156C85.8822 372.638 85.5587 373.033 85.189 373.316C84.8193 373.6 84.4121 373.763 83.995 373.797C83.5779 373.83 83.1608 373.732 82.772 373.509C82.3833 373.287 82.0321 372.945 81.7423 372.507L71.5897 357.156C69.9047 355.242 68.81 352.432 68.5457 349.344C68.2813 346.256 68.8689 343.141 70.1795 340.683C71.4901 338.225 73.4169 336.624 75.5371 336.231C77.6574 335.838 79.7982 336.685 81.49 338.587L94.2237 348.954C94.5882 349.251 94.9045 349.659 95.151 350.15C95.3975 350.641 95.5684 351.203 95.6521 351.799C95.7358 352.395 95.7303 353.01 95.636 353.603C95.5417 354.195 95.3608 354.751 95.1056 355.233Z" fill="#CCCCCC"/>
<path d="M186.333 639.07H0.754385C0.55431 639.07 0.362428 638.955 0.220954 638.749C0.0794795 638.543 0 638.263 0 637.972C0 637.681 0.0794795 637.401 0.220954 637.195C0.362428 636.989 0.55431 636.874 0.754385 636.874H186.333C186.533 636.874 186.724 636.989 186.866 637.195C187.007 637.401 187.087 637.681 187.087 637.972C187.087 638.263 187.007 638.543 186.866 638.749C186.724 638.955 186.533 639.07 186.333 639.07Z" fill="#CCCCCC"/>
</g>
<defs>
<clipPath id="clip0_16_12">
<rect width="582" height="638.416" fill="white" transform="translate(0 0.654602)"/>
</clipPath>
</defs>
</svg>
