<svg width="130.86" height="91.724" viewBox="0 0 34.623 24.269" xmlns:xlink="http://www.w3.org/1999/xlink" xmlns="http://www.w3.org/2000/svg"><defs><linearGradient id="a"><stop style="stop-color:#210909;stop-opacity:1" offset=".014"/><stop style="stop-color:#fa0000;stop-opacity:.49803922" offset=".481"/><stop style="stop-color:#fa6e00;stop-opacity:0" offset="1"/></linearGradient><linearGradient xlink:href="#a" id="d" gradientUnits="userSpaceOnUse" x1="79.334" y1="126.585" x2="144.359" y2="93.882"/><path id="b" d="M79.67 241.389h89.183v98.696H79.67z"/></defs><g transform="matrix(.37682 0 0 .3742 -21.597 -27.314)"><g aria-label="BZST" style="font-size:22.5778px;line-height:1.25;-inkscape-font-specification:'sans-serif, Normal';letter-spacing:1.32292px;white-space:pre;shape-subtract:url(#c);fill:#fefefe;fill-opacity:1;stroke-width:.265"><path d="m79.534 105.76-.236-2.08 3.286-.374c.964-.109 1.688-.413 2.171-.912.483-.506.679-1.157.589-1.953-.093-.818-.442-1.418-1.048-1.8-.606-.39-1.42-.527-2.443-.41l-3.09.35-.375-.967 3.9-.443c1.577-.179 2.835.022 3.774.604.46.284 1.82-1.148 1.406-.836-.418.316.039 2.915.213 3.57.352 1.321-.135 2.456-.869 3.294-.733.838-1.852 1.342-3.356 1.513zm-2.037.232-1.765-15.555 2.505-2.923 1.45 18.23zm.425-7.793-.122-1.073 4.557-.517.122 1.073zm.675-.698-.113-.997 2.629-.298c.825-.094 1.443-.349 1.855-.765.417-.425.587-.98.51-1.667-.077-.672-.376-1.16-.899-1.462-.515-.304-1.215-.406-2.098-.306l-2.432.276.209-4.883 2.076 2.356c1.126 1.277 4.964-1.007 4.833-.22-.272.06-.256 2.186.586 3.759.51.953-.193 1.949-.945 2.626-.752.67-1.88 1.09-3.385 1.26zM93.087 102.184l-1.594-1.44 8.987-12.417 1.588 1.551c-4.787 8.794-6.848 10.454-8.98 12.306zm-1.717.65.123-2.09c2.027.108 5.308.69 7.57.534 1.61-.11 2.96-1.71 2.79-1.436l-.358 3.586zm.793-13.536.122-2.091c1.62.228 2.985-.513 5.033-2.009 1.298-.948-1.343.498 4.872 2.589l-.122 2.091zM110.038 105.92a13.494 13.494 0 0 1-2.508-.153 9.758 9.758 0 0 1-2.166-.582l.227-2.234c.817.324 1.603.568 2.358.731a9.704 9.704 0 0 0 2.21.206c1.03-.028 1.789-.228 2.278-.602.49-.373.726-.927.706-1.662-.025-.933-.521-1.603-1.488-2.011l-2.744-1.162c-1.078-.456-1.913-1.018-2.504-1.686-.584-.668-.89-1.51-.917-2.523-.037-1.367.19-4.795.992-5.567.803-.771 2.115 1.183 3.62 1.142 1.051-.028 3.086-1.393 3.902-1.106.817.287.508 2.264 1.276 2.942l-1.501 1.606c-.66-.512-1.277-.878-1.85-1.098a4.355 4.355 0 0 0-1.761-.316c-.757.02-1.34.22-1.749.598-.401.371-.593.913-.574 1.625.014.507.161.919.442 1.235.28.308.688.58 1.223.816l2.322 1.019c1.175.512 2.073 1.102 2.694 1.77.62.666.945 1.536.974 2.609.038 1.418-.396 2.496-1.303 3.233-.9.73-2.286 1.12-4.16 1.17zM123.598 102.962l.125-15.654 2.205.017-.125 15.654zm-4.522-13.597.017-2.094c.52-.35.733-.817 1.877-.926.456-.02 2.255.472 3.393.786l6.195.231-.017 2.095c-1.28.505-1.838.783-1.82.694.008.15-1.69-.484-2.514-.685z" style="fill:#fefefe;fill-opacity:1"/></g><path id="c" style="opacity:1;fill:#fff;fill-opacity:1;fill-rule:evenodd;stroke:none;stroke-width:.613373;stroke-linejoin:round;stroke-dashoffset:2.26772;stroke-opacity:1" d="M75.705 105.2c17.37 1.186 8.627-2.28 16.931-2.153 11.41.175 7.706.533 12.502 1.642 12.154 2.812 6.066-.78 17.764-1.633 10.21-.746 11.74 3.321 11.363 3.261-12.279-1.957-46.727 28.995-35.777 3.288 2.999-7.04-15.466-2.272-11.587 2.696 1.927 2.467-15.406-6.533-16.868-6.13-.834.229 1.202-1.276 5.672-.97z"/><path style="fill:#00ffed;fill-opacity:1;fill-rule:evenodd;stroke:none;stroke-width:.533834;stroke-linejoin:round;stroke-dashoffset:2.26772;stroke-opacity:1" d="M78.77 106.594c7.559 4.86 7.643-2.737 14.572-2.621 9.52.158 10.87.326 8.873 3.938-9.612 17.384 11.82-1.1 22.385-2.15 8.505-.846 7.349-.1 7.034-.155-5.302-.92-16.095 5.955-24.008 9.567-7.378 3.367-12.252 3.9-7.844-7.36 2.501-6.39-18.022-1.73-14.785 2.78 1.607 2.24-11.63-4.929-12.85-4.564-.696.208 3.477-1.457 6.623.565z"/><path style="fill:url(#d);fill-opacity:1;fill-rule:evenodd;stroke:none;stroke-width:.533834;stroke-linejoin:round;stroke-dashoffset:2.26772;stroke-opacity:1" d="M79.47 106.863c7.56 4.859 7.644-2.737 14.573-2.622 9.52.16 10.74.258 8.874 3.938-8.549 16.853 11.838-1.109 22.385-2.15 8.505-.84 7.348-.1 7.034-.154-5.303-.92-16.095 5.955-24.01 9.567-7.376 3.367-12.251 3.899-7.843-7.361 2.502-6.39-18.022-1.729-14.785 2.781 1.608 2.24-11.63-4.929-12.85-4.564-.696.208 3.477-1.457 6.623.565z"/></g></svg>