<?xml version="1.0" encoding="UTF-8" standalone="no"?>
<!-- Created with Inkscape (http://www.inkscape.org/) -->

<svg
   version="1.1"
   id="svg182"
   width="70.902336"
   height="71.400246"
   viewBox="0 0 70.902336 71.400246"
   sodipodi:docname="cabecera_seccion_marcas-1500x200px.jpg"
   xmlns:inkscape="http://www.inkscape.org/namespaces/inkscape"
   xmlns:sodipodi="http://sodipodi.sourceforge.net/DTD/sodipodi-0.dtd"
   xmlns="http://www.w3.org/2000/svg"
   xmlns:svg="http://www.w3.org/2000/svg">
  <defs
     id="defs186" />
  <sodipodi:namedview
     id="namedview184"
     pagecolor="#ffffff"
     bordercolor="#666666"
     borderopacity="1.0"
     inkscape:showpageshadow="2"
     inkscape:pageopacity="0.0"
     inkscape:pagecheckerboard="0"
     inkscape:deskcolor="#d1d1d1"
     showgrid="false" />
  <g
     inkscape:groupmode="layer"
     inkscape:label="Image"
     id="g188"
     transform="translate(-340.23074,-53.316878)">
    <path
       d="m 373.87973,123.49696 c -0.56303,-1.46724 -0.92761,-1.54133 -2.23704,-0.4546 -1.21982,1.01236 -1.7304,1.02971 -2.31812,0.0788 -0.41455,-0.67076 -1.50525,-0.93118 -2.42378,-0.57871 -0.97582,0.37442 -1.67005,0.15263 -1.67005,-0.53356 0,-0.7193 -0.77501,-0.9284 -2,-0.5396 -1.44326,0.45807 -2,0.1797 -2,-1 0,-1.1797 -0.55674,-1.45807 -2,-1 -1.45642,0.46225 -2,0.1797 -2,-1.0396 0,-1.07749 -0.53472,-1.46919 -1.5,-1.09877 -1.03065,0.39549 -1.5,-0.0615 -1.5,-1.4604 0,-1.60197 -0.44,-1.89635 -2.06397,-1.38093 -1.6271,0.51642 -1.99752,0.2661 -1.75,-1.18261 0.22407,-1.31148 -0.21224,-1.74779 -1.52372,-1.52372 -1.44871,0.24752 -1.69903,-0.1229 -1.18261,-1.75 0.47165,-1.48604 0.21619,-2.06397 -0.91231,-2.06397 -1.75124,0 -2.09173,-2.07566 -0.58728,-3.58011 0.64014,-0.64014 0.61486,-2.30293 -0.0729,-4.79377 -1.45288,-5.2619 -0.54897,-5.54029 2.18639,-0.67337 1.26251,2.24633 2.77043,3.92823 3.35093,3.73757 0.58051,-0.19066 1.19263,-2.44898 1.36026,-5.01849 0.37355,-5.7258 1.71518,-6.07526 2.57922,-0.67183 0.63754,3.98693 2.61599,5.63679 2.61599,2.1815 0,-2.67672 -2.96072,-12.18401 -3.78874,-12.16619 -2.0773,0.0447 -3.11488,2.03129 -3.39705,6.50402 l -0.31421,4.98067 -2.8199,-4.34086 c -2.38371,-3.6694 -3.19581,-4.24652 -5.25,-3.73095 -1.3827,0.34703 -2.4301,0.17069 -2.4301,-0.40914 0,-0.56048 0.5051,-1.01905 1.12244,-1.01905 0.75139,0 0.69,-0.52107 -0.18569,-1.57622 -1.08098,-1.3025 -1.07,-1.72339 0.0633,-2.42378 1.08361,-0.66971 1.11722,-1.15383 0.16017,-2.307 -0.9707,-1.16963 -0.88593,-1.58426 0.42693,-2.08805 1.32185,-0.50724 1.40157,-0.91367 0.4129,-2.10495 -0.9899,-1.19276 -0.90446,-1.59943 0.44485,-2.11721 0.91855,-0.35248 1.42682,-1.27484 1.12948,-2.04969 -0.29734,-0.77484 0.15266,-1.67484 1,-2 0.84734,-0.32515 1.30387,-1.20812 1.01453,-1.96214 -0.33947,-0.88464 0.19615,-1.37096 1.50991,-1.37096 1.58093,0 1.89412,-0.44703 1.40123,-2 -0.50192,-1.58142 -0.1797,-2 1.5396,-2 1.59381,0 2.00834,-0.43269 1.55253,-1.62052 -0.4782,-1.24615 -0.15639,-1.49879 1.39301,-1.09362 1.51723,0.39677 2.01486,0.0394 2.01486,-1.44687 0,-1.51869 0.46112,-1.82741 2,-1.33899 1.44326,0.45807 2,0.1797 2,-1 0,-1.1797 0.55674,-1.45807 2,-1 1.4614,0.46383 2,0.1797 2,-1.05506 0,-1.34597 0.2888,-1.45014 1.41928,-0.51193 1.12099,0.93034 1.64256,0.79844 2.4817,-0.62756 0.92414,-1.57044 1.19497,-1.6102 2.08072,-0.30545 0.85438,1.25853 1.16128,1.27815 1.9065,0.12188 0.4885,-0.75796 1.40822,-1.05672 2.0438,-0.66391 0.63559,0.39282 1.80557,0.17479 2.59997,-0.4845 1.15529,-0.95881 1.57899,-0.84789 2.11702,0.5542 0.6331,1.64984 0.7462,1.65236 1.9231,0.0429 1.17378,-1.60525 1.31605,-1.59852 2.32088,0.1097 0.91675,1.5585 1.20891,1.60844 2.03494,0.3478 0.82602,-1.26064 1.06102,-1.22046 1.63672,0.2798 0.44683,1.16442 1.30309,1.55154 2.55379,1.15458 1.31828,-0.41846 1.88153,-0.10785 1.88153,1.03755 0,1.1797 0.55674,1.45807 2,1 1.44326,-0.45807 2,-0.1797 2,1 0,1.15614 0.5613,1.45663 1.91712,1.0263 1.57778,-0.50076 1.81738,-0.22703 1.3536,1.54647 -0.48472,1.85356 -0.2544,2.05683 1.64685,1.45339 1.77747,-0.56414 2.14889,-0.34602 1.8964,1.11371 -0.18567,1.07345 0.299,1.83359 1.18603,1.86013 0.85637,0.0256 1.37392,0.78615 1.20616,1.77244 -0.17749,1.04352 0.34414,1.72756 1.31739,1.72756 1.15615,0 1.43194,0.56488 0.97645,2 -0.46225,1.45642 -0.1797,2 1.0396,2 1.06414,0 1.46829,0.53705 1.10892,1.47355 -0.311,0.81046 0.14864,1.87319 1.02143,2.36162 1.09046,0.61025 1.23388,1.10623 0.45847,1.58546 -1.67911,1.03775 -1.36439,2.57937 0.52657,2.57937 1.47644,0 1.45542,0.22052 -0.19483,2.04402 -3.12011,3.44769 -5.6141,2.14447 -7.26065,-3.79402 -0.80061,-2.8875 -1.84802,-5.25 -2.32758,-5.25 -1.24292,0 -1.09393,1.57757 0.77959,8.25477 1.77794,6.33651 1.16511,6.03705 8.34848,4.07963 2.19313,-0.59761 2.3406,-0.48675 1.20144,0.90316 -0.9169,1.11872 -0.97611,1.78367 -0.20144,2.26244 0.77878,0.48131 0.78786,1.05069 0.0313,1.96228 -0.5862,0.70632 -0.78491,2.01626 -0.44157,2.91097 0.35811,0.93323 0.12358,1.62675 -0.55014,1.62675 -0.69466,0 -0.93043,0.76859 -0.57719,1.88158 0.38775,1.22169 0.0212,2.10261 -1.04523,2.51183 -1.28258,0.49217 -1.38802,0.9368 -0.48125,2.0294 1.33514,1.60874 -0.2189,3.13837 -2.04306,2.01098 -0.74503,-0.46045 -0.88652,0.0108 -0.43262,1.44098 0.49194,1.54993 0.25025,2.12523 -0.89285,2.12523 -0.89239,0 -1.56739,0.84778 -1.56739,1.96862 0,1.38071 -0.47036,1.78812 -1.57502,1.36422 -1.14173,-0.43813 -1.4856,-0.0856 -1.25,1.28138 0.22937,1.33082 -0.18999,1.79931 -1.42498,1.59194 -1.03786,-0.17426 -1.75,0.33441 -1.75,1.25 0,0.87717 -0.86365,1.54384 -2,1.54384 -1.14476,0 -2,0.66667 -2,1.55902 0,0.85746 -0.46971,1.26872 -1.0438,0.91391 -0.5741,-0.35481 -1.67939,-0.11763 -2.4562,0.52707 -0.77681,0.6447 -1.88528,0.87992 -2.46326,0.52271 -0.57798,-0.35721 -1.32524,0.0655 -1.66059,0.93943 -0.48765,1.27081 -0.90189,1.34642 -2.06915,0.37769 -1.1563,-0.95965 -1.64266,-0.91476 -2.34157,0.21611 -0.6889,1.11465 -1.14653,1.16296 -2.08899,0.2205 -0.94246,-0.94246 -1.46403,-0.85512 -2.38082,0.39866 -1.06793,1.46048 -1.23472,1.44717 -1.84663,-0.14743 z M 362.23074,98.56712 c 0,-0.7712 1.34225,-1.87009 2.98278,-2.44198 2.42206,-0.84434 3.14925,-0.74234 3.86832,0.54257 0.48705,0.87031 1.39391,1.26819 2.01524,0.88419 1.40294,-0.86707 -6.30519,-12.58261 -8.2786,-12.58261 -0.73576,0 -1.61899,1.40625 -1.96274,3.125 -0.9632,4.81598 -0.74028,11.875 0.375,11.875 0.55,0 1,-0.63098 1,-1.40217 z m 0,-7.59783 c 0,-3.42203 0.70327,-3.75911 2.60795,-1.25 1.92842,2.54037 1.68386,4.25 -0.60795,4.25 -1.55556,0 -2,-0.66667 -2,-3 z m 12.50696,-0.97362 c -0.78832,-2.98836 -1.30456,-5.56211 -1.14721,-5.71946 0.15734,-0.15735 1.63431,-0.55573 3.28215,-0.8853 2.93318,-0.58664 3.02421,-0.48191 4.3368,4.98958 0.86196,3.59307 1.85754,5.5888 2.788,5.5888 0.84764,0 1.21874,-0.59557 0.89567,-1.43745 -1.51137,-3.9386 -2.68421,-9.71819 -2.14811,-10.58562 0.33208,-0.53731 1.25222,-0.97693 2.04476,-0.97693 0.79254,0 1.44098,-0.45 1.44098,-1 0,-1.31444 -0.71254,-1.26789 -6.5685,0.42906 -2.71232,0.78599 -6.844,1.92833 -9.1815,2.53855 -2.3375,0.61021 -4.25,1.59092 -4.25,2.17934 0,0.63926 0.99718,0.81959 2.47758,0.44803 2.10786,-0.52904 2.56894,-0.20946 3.08981,2.1416 1.36565,6.16409 2.69094,9.40509 3.51067,8.58536 0.48292,-0.48292 0.2317,-3.25228 -0.5711,-6.29556 z m 21.05022,0.85491 c 2.44355,-0.6153 4.44282,-1.5153 4.44282,-2 0,-1.10931 -0.73354,-1.10489 -4.68435,0.0282 -2.48633,0.71307 -3.29473,0.58743 -3.7434,-0.58178 -1.00699,-2.62419 -0.64303,-3.09183 2.92775,-3.76171 4.99841,-0.93771 4.43835,-2.73966 -0.60105,-1.93383 -3.61826,0.57858 -4.05954,0.44026 -3.74847,-1.17501 0.20913,-1.08594 1.67422,-2.17327 3.60105,-2.67256 1.78666,-0.46299 3.24847,-1.27892 3.24847,-1.81319 0,-0.53428 -0.25073,-0.97141 -0.55718,-0.97141 -1.35796,0 -9.44282,2.28021 -9.44282,2.6632 0,1.31971 3.31473,13.3368 3.67875,13.3368 0.23959,0 2.43488,-0.50342 4.87843,-1.11871 z m 8.74818,28.47209 c -0.31401,-0.8183 -0.0914,-1.96732 0.49464,-2.55338 1.4936,-1.4936 4.41475,-0.14878 4.02391,1.8525 -0.41595,2.12983 -3.77054,2.65017 -4.51855,0.70088 z m -61.30536,-16.4124 c 0,-0.58246 0.45,-0.7809 1,-0.44098 0.55,0.33992 1,0.81648 1,1.05902 0,0.24254 -0.45,0.44098 -1,0.44098 -0.55,0 -1,-0.47656 -1,-1.05902 z m -2,-3.88196 c 0,-1.67643 1.77354,-2.09154 2.36383,-0.55328 0.3483,0.90766 -0.003,1.49426 -0.89521,1.49426 -0.80774,0 -1.46862,-0.42344 -1.46862,-0.94098 z m -0.45729,-3.98992 c -0.31644,-0.512 -0.11799,-1.21356 0.44098,-1.55902 0.55897,-0.34546 1.01631,0.0734 1.01631,0.9309 0,1.75653 -0.60006,2.01516 -1.45729,0.62812 z"
       style="fill:#000000"
       id="path408" />
  </g>
</svg>
