<svg xmlns="http://www.w3.org/2000/svg" width="86.878" height="12.007"><path d="M68.597 60.522c3.753-6.818 4.226-7.25 7.95-7.25 2.749 0 3.473.454 3.986 2.5.345 1.375 1.038 2.5 1.54 2.5.503 0 1.426-1.125 2.053-2.5.836-1.837 1.914-2.5 4.062-2.5 1.607 0 2.772.341 2.589.758-.183.418-1.683 3.133-3.333 6.035-2.682 4.717-3.318 5.247-5.997 4.992-2.265-.215-3.37-1.078-4.524-3.532l-1.527-3.248-1.884 3.498c-1.468 2.725-2.506 3.497-4.706 3.497h-2.823zm17.513 3.992c.184-.418 1.684-3.117 3.334-6 2.474-4.322 3.482-5.24 5.75-5.241 1.512 0 2.75.266 2.75.593 0 .326-1.455 3.026-3.234 6-2.704 4.52-3.7 5.406-6.083 5.406-1.568 0-2.7-.341-2.517-.758zm7.956-1.492c4.317-8.142 5.862-9.75 9.371-9.75 2.866 0 3.578.434 4.096 2.5.345 1.375.953 2.5 1.35 2.5.398 0 1.325-1.125 2.06-2.5.944-1.763 2.173-2.5 4.17-2.5 3.303 0 3.363.19 1.188 3.785-1.568 2.591-1.528 2.58.873-.245 2.279-2.68 3.205-3 9.797-3.372 6.539-.37 7.213-.238 6.626 1.292-.36.937-.653 1.892-.653 2.122 0 .23-2.234.418-4.965.418-3.941 0-5.186.412-6.035 2-.998 1.864-.76 2 3.5 2s4.498.136 3.5 2c-.916 1.71-2.094 2-8.144 2h-7.073l.686-2.734.686-2.733-2.194 2.789c-3.013 3.83-6.895 3.368-8.982-1.07l-1.527-3.247-1.884 3.498c-1.48 2.75-2.498 3.497-4.76 3.497-2.672 0-2.793-.162-1.686-2.25zm36.587 1.626c-.97-.97 3.006-8.063 5.5-9.81 1.456-1.02 4.437-1.566 8.545-1.566 7.242 0 8.29 1.078 5.777 5.94-1.81 3.501-1.318 5.245 1.25 4.422 1.46-.468 1.493-.388.219.528-1.894 1.363-4.321 1.439-3.5.11.34-.55.168-1-.382-1s-1.278.45-1.618 1c-.665 1.076-14.755 1.412-15.79.376zm13.29-3.794c0-.23.274-1.13.608-2 .45-1.173-.016-1.582-1.8-1.582-2.365 0-4.807 1.626-4.807 3.2 0 .44 1.35.8 3 .8s3-.188 3-.418z" style="fill:#000" transform="translate(-65.983 -53.267)"/></svg>