<?xml version="1.0" encoding="UTF-8" standalone="no"?>
<!-- Created with Inkscape (http://www.inkscape.org/) -->

<svg
   version="1.1"
   id="svg182"
   width="85.699478"
   height="12.00001"
   viewBox="0 0 85.699478 12.00001"
   sodipodi:docname="cabecera_seccion_marcas-1500x200px.jpg"
   xmlns:inkscape="http://www.inkscape.org/namespaces/inkscape"
   xmlns:sodipodi="http://sodipodi.sourceforge.net/DTD/sodipodi-0.dtd"
   xmlns="http://www.w3.org/2000/svg"
   xmlns:svg="http://www.w3.org/2000/svg">
  <defs
     id="defs186" />
  <sodipodi:namedview
     id="namedview184"
     pagecolor="#ffffff"
     bordercolor="#666666"
     borderopacity="1.0"
     inkscape:showpageshadow="2"
     inkscape:pageopacity="0.0"
     inkscape:pagecheckerboard="0"
     inkscape:deskcolor="#d1d1d1"
     showgrid="false" />
  <g
     inkscape:groupmode="layer"
     inkscape:label="Image"
     id="g188"
     transform="translate(-173.71561,-80.62613)">
    <path
       d="m 177.09349,86.87614 c 2.97044,-5.05644 3.79691,-5.78656 6.85196,-6.05311 3.00574,-0.26224 3.56048,0.0411 4.11488,2.25 0.81313,3.23976 2.32306,3.26095 3.78464,0.0531 0.83103,-1.8239 1.91759,-2.5 4.01777,-2.5 h 2.87868 l -3.2892,5.98814 c -2.76775,5.03881 -3.72138,5.99001 -6.01531,6 -2.11265,0.009 -3.13028,-0.77593 -4.52215,-3.48897 l -1.79603,-3.50084 -1.88533,3.50084 c -1.46809,2.72608 -2.50856,3.50083 -4.70155,3.50083 h -2.81624 z m 16.56953,5.20196 c 0,-0.30142 1.56941,-3.00142 3.48758,-6 2.70623,-4.23052 4.05045,-5.45196 6,-5.45196 1.38183,0 2.51242,0.26718 2.51242,0.59373 0,0.32655 -1.45513,3.02655 -3.23363,6 -2.66738,4.45957 -3.71806,5.40627 -6,5.40627 -1.5215,0 -2.76637,-0.24661 -2.76637,-0.54804 z m 8.12244,-1.70196 c 4.31658,-8.1424 5.86169,-9.75 9.37105,-9.75 2.86564,0 3.57745,0.43447 4.09587,2.5 0.3451,1.375 1.03832,2.5 1.54049,2.5 0.50216,0 1.42561,-1.125 2.0521,-2.5 0.82922,-1.81992 1.91849,-2.5 4.00425,-2.5 h 2.86516 l -1.66007,3.25 c -3.43581,6.72647 -5.48377,8.87688 -8.1484,8.556 -2.50879,-0.3021 -3.49404,-1.40471 -4.73083,-5.29437 -0.55491,-1.7452 -0.89352,-1.53118 -2.7687,1.75 -1.67912,2.93809 -2.74414,3.73837 -4.9751,3.73837 -2.63052,0 -2.75118,-0.16495 -1.64582,-2.25 z m 19.87756,1.13616 c 0,-2.3387 4.35865,-8.72854 6.67331,-9.78317 1.33144,-0.60664 4.92277,-1.10299 7.98073,-1.10299 4.65909,0 5.46159,0.25629 4.95295,1.58179 -0.33385,0.86998 -0.60699,1.76998 -0.60699,2 0,0.23002 -2.16,0.41821 -4.8,0.41821 -4.42655,0 -7.2,1.23265 -7.2,3.2 0,0.44 2.04083,0.8 4.53518,0.8 4.22531,0 4.46205,0.13666 3.46482,2 -0.91308,1.70611 -2.09382,2 -8.03518,2 -4.45113,0 -6.96482,-0.402 -6.96482,-1.11384 z m 16.62441,0.31514 c -0.85058,-1.37626 3.79942,-8.60228 6.39676,-9.94046 1.41373,-0.72837 5.05258,-1.1662 8.46879,-1.01898 7.2778,0.31364 7.87057,1.5799 3.53887,7.55965 l -3.04137,4.19849 h -7.43472 c -4.08909,0 -7.65684,-0.35941 -7.92833,-0.7987 z m 13.37559,-3.61951 c 0,-0.23002 0.27314,-1.13002 0.60699,-2 0.47323,-1.23322 -0.0777,-1.58179 -2.5,-1.58179 -1.70885,0 -3.10699,0.1882 -3.10699,0.41821 0,0.23002 -0.27314,1.13002 -0.60699,2 -0.47323,1.23322 0.0777,1.58179 2.5,1.58179 1.70885,0 3.10699,-0.18819 3.10699,-0.41821 z m 5,3.35919 c 0,-0.58245 0.45,-0.7809 1,-0.44098 0.55,0.33992 1,0.81648 1,1.05902 0,0.24254 -0.45,0.44098 -1,0.44098 -0.55,0 -1,-0.47656 -1,-1.05902 z"
       style="fill:#000000"
       id="path357" />
  </g>
</svg>
