<?xml version="1.0" encoding="UTF-8" standalone="no"?>
<!-- Created with Inkscape (http://www.inkscape.org/) -->

<svg
   version="1.1"
   id="svg182"
   width="107.67393"
   height="44.180122"
   viewBox="0 0 107.67393 44.180122"
   sodipodi:docname="cabecera_seccion_marcas-1500x200px.jpg"
   xmlns:inkscape="http://www.inkscape.org/namespaces/inkscape"
   xmlns:sodipodi="http://sodipodi.sourceforge.net/DTD/sodipodi-0.dtd"
   xmlns="http://www.w3.org/2000/svg"
   xmlns:svg="http://www.w3.org/2000/svg">
  <defs
     id="defs186" />
  <sodipodi:namedview
     id="namedview184"
     pagecolor="#ffffff"
     bordercolor="#666666"
     borderopacity="1.0"
     inkscape:showpageshadow="2"
     inkscape:pageopacity="0.0"
     inkscape:pagecheckerboard="0"
     inkscape:deskcolor="#d1d1d1"
     showgrid="false" />
  <g
     inkscape:groupmode="layer"
     inkscape:label="Image"
     id="g188"
     transform="translate(-315.46395,-28.061911)">
    <path
       d="m 407.12247,69.84503 c -0.85127,-1.86833 -0.73298,-3.49661 0.52144,-7.17814 0.89235,-2.61891 1.62246,-6.6814 1.62246,-9.02776 0,-3.11149 0.66806,-5.02546 2.4684,-7.07186 1.7124,-1.94644 2.47808,-2.33104 2.5,-1.25576 0.0174,0.8525 -0.36782,1.9775 -0.85601,2.5 -0.48818,0.5225 -1.21403,2.075 -1.613,3.45 -0.59287,2.04323 -0.0427,1.71374 3.0112,-1.80335 4.80043,-5.52855 7.84006,-5.50329 8.30071,0.069 0.25433,3.07658 -0.2348,4.31171 -2.67308,6.75 -1.64141,1.6414 -3.90156,2.98437 -5.02256,2.98437 -1.59069,0 -2.37601,1.13762 -3.57692,5.1815 -0.84631,2.84983 -1.53874,5.77483 -1.53874,6.5 0,2.17561 -1.96504,1.48934 -3.1439,-1.09798 z m 12.31516,-16.23851 c 1.00581,-0.91024 1.82874,-2.55499 1.82874,-3.65499 0,-1.96616 -0.0354,-1.96796 -2.09262,-0.1062 -2.88733,2.613 -4.32164,5.41618 -2.7713,5.41618 0.66354,0 2.02937,-0.74474 3.03518,-1.65499 z m -87.17126,7.72238 c 0,-1.06294 -0.87709,-2.21099 -1.94908,-2.55123 -3.0205,-0.95867 -8.05092,-6.10233 -8.05092,-8.23216 0,-1.86712 5.43579,-5.284 8.40612,-5.284 0.78804,0 1.60125,-1.6446 1.97789,-4 0.7817,-4.88851 2.30328,-5.18381 3.16069,-0.61341 0.57295,3.05408 1.04377,3.45177 4.79531,4.05054 4.77289,0.76178 8.65999,2.98967 8.65999,4.96348 0,1.89675 -2.67978,3.91533 -4.06296,3.06048 -0.83992,-0.5191 -0.79207,-0.93265 0.17724,-1.53172 1.99264,-1.23152 0.50199,-2.10558 -4.56488,-2.67669 l -4.5494,-0.51278 v 5.24654 5.24655 l 6.48923,-0.4132 c 8.09859,-0.51568 11.87472,-2.9503 12.30717,-7.93492 0.63294,-7.29553 -11.88119,-16.60252 -25.55005,-19.00205 -6.60955,-1.16028 -11.78159,-0.55788 -10.66882,1.24263 0.39492,0.63898 -0.0567,0.928 -1.12623,0.72068 -0.98206,-0.19037 -1.9627,-0.87816 -2.1792,-1.52843 -1.21339,-3.64448 12.66242,-4.80035 21.84352,-1.81959 17.71358,5.75093 26.90441,18.91642 19.06448,27.3091 -3.33002,3.56479 -9.90586,5.59652 -15.91966,4.91868 -2.34324,-0.26412 -4.26044,-0.0855 -4.26044,0.39695 0,0.48244 -0.9,0.87716 -2,0.87716 -1.31009,0 -2,-0.66667 -2,-1.93261 z m 0,-9.17868 v -4.11129 l -3.75,0.68911 c -5.57027,1.0236 -6.24789,2.28105 -2.75,5.10314 4.6309,3.7362 6.5,3.25284 6.5,-1.68096 z m 65.0976,6.72889 c -1.47426,-1.77637 -1.06348,-7.71329 0.65583,-9.4785 1.1033,-1.13275 1.02572,-1.5801 -0.46275,-2.6685 -1.66101,-1.21456 -1.60367,-1.35394 0.80585,-1.95869 3.79138,-0.95158 10.1841,-0.20907 10.6595,1.23809 0.23667,0.72043 -0.43733,1.25 -1.59091,1.25 -2.59978,0 -5.16512,0.99997 -5.16512,2.01337 0,0.43966 0.9,0.56404 2,0.27638 1.39092,-0.36373 2,-0.0307 2,1.09362 0,1.1163 -0.89535,1.61663 -2.89301,1.61663 -1.71266,0 -3.14008,0.64384 -3.49856,1.57804 -0.49572,1.29183 0.0572,1.51854 3.04855,1.25 4.58538,-0.41164 5.26114,1.1984 1.44831,3.45069 -3.52436,2.0819 -5.48252,2.17658 -7.00769,0.33887 z m -35.89141,-6.8676 c 0.1616,-3.9875 0.74381,-7.25 1.29381,-7.25 1.04017,0 2.47371,11.0593 1.71751,13.25 -0.23732,0.6875 -1.07806,1.25 -1.86831,1.25 -1.14399,0 -1.37694,-1.47758 -1.14301,-7.25 z m 7.50617,5.24303 c -2.26121,-1.78244 -2.56064,-2.47092 -1.58559,-3.64578 1.35368,-1.63109 8.69394,-1.48868 7.87323,0.15275 -0.275,0.55 -2.00432,0.86281 -3.84293,0.69512 -2.1527,-0.19632 -3.11081,0.0707 -2.69099,0.75 1.25801,2.03551 9.53392,0.78107 9.53392,-1.44512 0,-1.47233 -3.11271,-2.46692 -7.78138,-2.48635 -4.27093,-0.0178 -5.41779,-2.6242 -2.27459,-5.16941 2.73767,-2.21683 13.50895,-2.71641 12.81229,-0.59424 -0.22569,0.6875 -1.95069,1.37147 -3.83333,1.51994 -1.88265,0.14847 -4.54799,0.56182 -5.92299,0.91855 -1.99993,0.51886 -1.42314,0.79632 2.88353,1.38709 5.30036,0.72708 7.08584,1.96793 7.08584,4.92442 0,2.76356 -1.65218,4.14779 -5.57525,4.67104 -3.02294,0.4032 -4.51776,0.0278 -6.68176,-1.67801 z m 13.65576,0.5239 c -0.90252,-2.35194 0.20697,-10.49948 1.6142,-11.85389 0.92678,-0.892 1.594,-0.59308 2.86303,1.28268 0.91006,1.34514 2.47351,3.37014 3.47434,4.5 1.8072,2.04018 1.81545,2.03461 1.20167,-0.81238 -1.61132,-7.47402 -1.71342,-8.63334 -0.7603,-8.63334 1.47592,0 4.23894,6.32915 4.23894,9.71 0,1.59926 -0.67399,3.78125 -1.49775,4.84887 -1.46428,1.89776 -1.54807,1.8829 -3.75,-0.66492 -1.23874,-1.43332 -2.78829,-3.45832 -3.44344,-4.5 -1.03634,-1.64774 -1.19884,-1.34912 -1.25,2.29703 -0.0614,4.37533 -1.6261,6.60022 -2.69069,3.82595 z M 358.1955,39.5751 c -1.33851,-3.52054 -1.20278,-4.13085 1.52542,-6.85904 4.61351,-4.61352 13.53138,-2.51896 12.1811,2.86099 -0.7519,2.9958 -3.44959,4.72415 -8.95652,5.73823 -3.43982,0.63343 -3.91354,0.45988 -4.75,-1.74018 z m 10.87087,-2.51359 c 1.56904,-1.56904 1.53931,-3.80903 -0.05,-3.76673 -1.33716,0.0356 -5.75,3.39474 -5.75,4.37702 0,1.08665 4.58556,0.60415 5.8,-0.61029 z m -6.8,-2.3 c 0.69443,-0.83674 0.80272,-1.5 0.24489,-1.5 -0.55,0 -1.5602,0.675 -2.24489,1.5 -0.69443,0.83674 -0.80272,1.5 -0.24489,1.5 0.55,0 1.5602,-0.675 2.24489,-1.5 z"
       style="fill:#000000"
       id="path357" />
  </g>
</svg>
