<svg xmlns="http://www.w3.org/2000/svg" width="87.129" height="42.676"><path d="M133.344 95.198c-.955-1.021-1.71-1.09-3.015-.275-4.19 2.617-3.95-.775 1.224-17.313 2.8-8.951 4.881-16.486 4.624-16.743-.257-.257-1.445.055-2.64.694-2.474 1.324-3.511.776-2.671-1.412.726-1.894 7.171-5.216 11.807-6.085 4.556-.855 10.476 1.55 11.99 4.871 1.63 3.581.375 7.128-4.332 12.235l-4.139 4.49 2.11 2.11 2.11 2.11 3.597-3.16c3.501-3.073 7.81-4.13 8.998-2.208.324.523-.292 3.556-1.367 6.74-1.075 3.185-1.773 5.971-1.552 6.192 1.231 1.232 5.678-6.217 7.84-13.133.3-.962 1.284-1.75 2.185-1.75 1.065 0 1.432.54 1.048 1.54-.325.846-.051 2.403.608 3.46.934 1.494.93 2.664-.016 5.28-1.55 4.289-1.528 4.72.246 4.72.868 0 1.916-1.686 2.58-4.15 1.872-6.955 5.448-14.082 9.833-19.6 4.25-5.348 6.052-6.25 7.941-3.972 1.63 1.964-6.734 17.064-14.022 25.317-1.735 1.964-1.608 5.405.199 5.405 1.237 0 4.008-4.74 4.008-6.858 0-1.06.712-2.201 1.582-2.535 2.235-.858 2.418-.79 2.418.893 0 2.686 2.5 1.582 4.398-1.941 1.02-1.893 2.457-3.673 3.196-3.957 2.552-.979 2.54 1.45-.023 4.496-2.706 3.215-4.273 7.534-3.144 8.663 1.308 1.308 3.974-1.468 5.337-5.556 1.72-5.157 6.797-9.813 8.847-8.112 2.346 1.947 1.564 4.638-2.63 9.047-2.574 2.706-3.672 4.57-3.056 5.186 1.435 1.435 6.266-.897 10.14-4.893 3.804-3.925 4.934-4.26 4.934-1.46 0 2.311-9.333 9.027-12.545 9.027-1.14 0-2.925-.623-3.968-1.386-1.416-1.036-2.473-1.122-4.187-.34-1.817.827-2.706.668-4.296-.77-1.102-.998-2.004-2.42-2.004-3.159 0-2.434-1.692-1.409-4.381 2.655-2.934 4.434-5.865 5.18-7.85 2-.688-1.1-2.28-2-3.54-2-2.934 0-3.786-2.279-2.463-6.588 1.504-4.9-.107-4.204-3.67 1.588-3.113 5.059-4.735 5.961-6.872 3.824-.902-.902-1.609-.785-3.029.5-2.267 2.051-3.083 2.087-5.14.225-1.423-1.287-1.82-1.13-3.517 1.395-3.585 5.334-10.823 7.808-13.732 4.693zm8.333-3.566c1.777-1.452 2.078-2.216 1.218-3.093-1.711-1.742-7.285 1.5-7.342 4.272-.03 1.46 3.796.723 6.124-1.179zm16.83-10.176c2.64-4.291 2.788-4.895 1.196-4.895-3.267 0-8.863 7.739-7.73 10.69.81 2.115 2.697.442 6.534-5.795zm-16.303 3.999c3.197 1.456 4.334.69 4.334-2.918 0-3.88-2.684-5.314-7.152-3.822-4.248 1.42-4.497 1.68-5.313 5.555l-.676 3.208 3.162-1.577c2.503-1.249 3.68-1.342 5.645-.446zm62.334-7.243c0-.55-1.125.057-2.5 1.35-1.375 1.29-2.5 2.798-2.5 3.348 0 .55 1.125-.057 2.5-1.349s2.5-2.799 2.5-3.349zm-19.017-7.946c3.442-6.12 3.61-8.768.254-4.013-2.148 3.046-7.237 12.826-7.237 13.91 0 1.2 3.654-3.979 6.983-9.897zm-40.729 1.556c4.502-3.045 8.01-8.374 7.567-11.495-.394-2.777-4.446-3.494-10.125-1.793-3.084.924-3.615 1.42-2.702 2.52 1.134 1.366 1.045 1.904-1.863 11.307-.965 3.12-.901 3.264 1.174 2.65 1.207-.358 3.884-1.793 5.95-3.189zm50.746-.56c0-2.759 1.735-4.7 4.2-4.7 2.562 0 2.287 3.545-.423 5.442-3.016 2.113-3.777 1.963-3.777-.743z" style="fill:#000" transform="translate(-127.408 -53.89)"/></svg>