<?xml version="1.0" encoding="UTF-8" standalone="no"?>
<!-- Created with Inkscape (http://www.inkscape.org/) -->

<svg
   version="1.1"
   id="svg182"
   width="85"
   height="47.410091"
   viewBox="0 0 85 47.410091"
   sodipodi:docname="cabecera_seccion_marcas-1500x200px.jpg"
   xmlns:inkscape="http://www.inkscape.org/namespaces/inkscape"
   xmlns:sodipodi="http://sodipodi.sourceforge.net/DTD/sodipodi-0.dtd"
   xmlns="http://www.w3.org/2000/svg"
   xmlns:svg="http://www.w3.org/2000/svg">
  <defs
     id="defs186" />
  <sodipodi:namedview
     id="namedview184"
     pagecolor="#ffffff"
     bordercolor="#666666"
     borderopacity="1.0"
     inkscape:showpageshadow="2"
     inkscape:pageopacity="0.0"
     inkscape:pagecheckerboard="0"
     inkscape:deskcolor="#d1d1d1"
     showgrid="false" />
  <g
     inkscape:groupmode="layer"
     inkscape:label="Image"
     id="g188"
     transform="translate(-483.80023,-25.459294)">
    <path
       d="m 510.30023,72.384024 c -12.787,-1.51829 -23.7876,-5.14438 -25.5399,-8.41869 -0.5281,-0.98667 -0.9601,-7.82879 -0.9601,-15.2047 0,-14.44497 0.083,-14.6912 5.9539,-17.73652 17.7042,-9.18297 72.4702,-6.40284 78.0165,3.9604 0.5663,1.05815 1.0296,7.76349 1.0296,14.90075 v 12.97685 l -3.0665,2.58029 c -5.8586,4.9297 -20.4948,7.61445 -40.4335,7.41679 -6.6,-0.0654 -13.35,-0.27925 -15,-0.47517 z m 33.1776,-1.3983 c 11.093,-1.49495 18.9096,-3.83393 21.8169,-6.5283 2.4256,-2.24802 2.5055,-2.73503 2.5055,-15.28088 v -12.95885 l -2.9034,-2.44306 c -9.8227,-8.26522 -55.8,-9.73506 -73.4774,-2.34898 -6.3407,2.6493 -6.6192,3.4115 -6.6192,18.1131 0,12.98148 0.069,13.41001 2.4492,15.28255 7.2592,5.71004 36.121,8.87421 56.2284,6.16442 z m -31.381,-0.95222 c -10.4338,-1.08628 -20.0903,-3.52006 -23.2966,-5.87161 -2.4078,-1.76591 -2.5103,-2.29865 -2.7797,-14.4481 -0.2536,-11.44071 -0.096,-12.79832 1.6949,-14.58913 4.7101,-4.71007 23.1494,-7.56645 44.0848,-6.82905 16.8429,0.59325 27.6842,2.76628 32.0254,6.41911 l 2.9746,2.50297 v 11.9111 c 0,13.02522 -0.6565,14.67239 -6.7899,17.03484 -8.8704,3.41666 -33.3081,5.39044 -47.9135,3.86987 z m 3.7034,-16.2936 c 0,-7.81724 -0.9123,-9.7 -4.7,-9.7 -2.0167,0 -2.3,-0.49275 -2.3,-4 0,-3.6 -0.25,-4 -2.5,-4 h -2.5 v 11 11 h 2.5 c 2.3636,0 2.5,-0.3 2.5,-5.5 0,-3.025 0.45,-5.5 1,-5.5 0.5714,0 1,3 1,7 0,6.8 0.071,7 2.5,7 2.4384,0 2.5,-0.18 2.5,-7.3 z m 18.8164,4.05 c 0.2549,-2.21488 -0.086,-2.75 -1.75,-2.75 -1.3788,0 -2.0664,0.64587 -2.0664,1.94098 0,1.06754 -0.45,2.2191 -1,2.55902 -0.6309,0.38991 -1,-2.00929 -1,-6.5 0,-4.49071 0.3691,-6.88991 1,-6.5 0.55,0.33992 1,1.49148 1,2.55902 0,1.29511 0.6876,1.94098 2.0664,1.94098 1.6643,0 2.0049,-0.53512 1.75,-2.75 -0.2759,-2.3979 -0.8055,-2.79027 -4.1362,-3.06453 -5.5236,-0.45482 -6.6802,0.97702 -6.6802,8.27031 0,3.41599 0.3207,6.53163 0.7128,6.92365 0.392,0.39203 2.7545,0.57953 5.25,0.41667 4.12,-0.26888 4.5663,-0.54895 4.8536,-3.0461 z m -33.7507,1.21482 c 1.1092,-0.59362 1.9343,-2.08657 1.9343,-3.5 0,-1.96247 -0.5095,-2.46482 -2.5,-2.46482 -2,0 -2.5,0.5 -2.5,2.5 0,1.375 -0.45,2.5 -1,2.5 -0.5641,0 -1,-2.83333 -1,-6.5 0,-3.66667 0.4359,-6.5 1,-6.5 0.55,0 1,1.125 1,2.5 0,2 0.5,2.5 2.5,2.5 2.6501,0 3.3165,-2.16039 1.5352,-4.97727 -1.0013,-1.58341 -8.307,-2.08426 -9.7246,-0.66667 -0.4458,0.44583 -0.8106,3.71452 -0.8106,7.26375 0,4.64803 0.4196,6.71838 1.5,7.40135 1.9839,1.25414 5.6651,1.22842 8.0657,-0.0563 z m 58.2967,-0.24055 c 1.4104,-1.03133 1.6865,-2.51224 1.4411,-7.72989 -0.2821,-5.99988 -0.4942,-6.52094 -3.0132,-7.40314 -1.8353,-0.64276 -3.5294,-0.57549 -5.25,0.20845 -2.3656,1.07784 -2.5403,1.63526 -2.5403,8.10555 0,5.77636 0.2951,7.02524 1.75,7.40543 3.3513,0.87579 5.879,0.68107 7.6124,-0.5864 z m -5.1627,-6.87416 c 0.3717,-7.86061 2.3003,-8.01571 2.3003,-0.185 0,3.74404 -0.4388,5.80011 -1.3003,6.09301 -0.9967,0.33885 -1.2302,-1.0408 -1,-5.90801 z m -32.1997,-1.85011 c 0,-7.62963 -0.1042,-8 -2.25,-8 -2.1458,0 -2.25,0.37037 -2.25,8 0,7.62963 0.1042,8 2.25,8 2.1458,0 2.25,-0.37037 2.25,-8 z m 25.8164,4.75 c 0.2673,-2.32283 -0.056,-2.75 -2.0794,-2.75 -1.6453,0 -2.3709,0.5482 -2.3164,1.75 0.044,0.9625 -0.3706,1.75 -0.9206,1.75 -0.5545,0 -1,-2.6481 -1,-5.9443 0,-5.71812 1.6609,-8.44321 2.3196,-3.8057 0.2095,1.47547 1.0069,2.25 2.3164,2.25 1.5884,0 1.9321,-0.56246 1.6804,-2.75 -0.2981,-2.59114 -0.6052,-2.75 -5.3164,-2.75 h -5 l -0.3015,6.39467 c -0.4162,8.82935 -0.1392,9.27475 5.5413,8.91054 4.3609,-0.27961 4.7867,-0.53587 5.0766,-3.05521 z"
       style="fill:#000000"
       id="path357" />
  </g>
</svg>
