<svg xmlns="http://www.w3.org/2000/svg" width="107.98" height="44.659"><path d="M266.154 121.484c-1.618-1.618-1.511-5.12.289-9.428.819-1.96 1.422-5.264 1.34-7.342-.146-3.756 3.317-11.03 5.252-11.03 1.31 0 1.179.57-1.224 5.29l-2.142 4.21 4.7-4.324c3.819-3.512 4.972-4.1 6.143-3.127 3.902 3.238-.788 13.951-6.108 13.951-1.994 0-2.619.828-3.911 5.182-.847 2.85-1.54 5.775-1.54 6.5 0 1.643-1.223 1.695-2.8.118zm11.577-17.356c1.223-.856 2.223-2.458 2.223-3.56 0-2.437-1.222-1.786-4.022 2.147-2.326 3.267-1.63 3.815 1.8 1.413zm-86.484 8.568c-.286-1.094-2.037-2.926-3.89-4.072-1.854-1.145-4.268-3.223-5.365-4.618-2.65-3.368-1.353-5.717 4.175-7.56 3.533-1.177 4.345-1.946 4.895-4.637.363-1.774.962-3.528 1.33-3.896.929-.929 2.528 1.826 2.547 4.386.012 1.747.803 2.222 4.555 2.736 2.497.342 5.422 1.094 6.5 1.671 2.66 1.424 2.585 5.645-.115 6.502-2.53.803-3.92-.291-1.93-1.52 1.126-.697.835-1.117-1.344-1.946-1.53-.582-3.877-1.058-5.216-1.058-2.255 0-2.435.37-2.435 5v5h5.032c12.767 0 17.58-7.365 10.395-15.904-3.408-4.05-15.453-9.896-22.85-11.09-6.13-.99-10.974-.457-10.011 1.101.303.491-.408.893-1.58.893-3.64 0-1.897-3.35 2.528-4.86 9.245-3.155 26.683 2.837 34.92 12 4.317 4.8 5.063 6.644 4.6 11.36-.608 6.175-8.656 10.897-17.616 10.338-3.662-.229-5.553.065-5.877.912-.735 1.923-2.668 1.483-3.248-.738zm-.293-10.057v-4.045l-3.75.677c-6.442 1.162-6.834 2.202-2 5.298 4.767 3.053 5.75 2.723 5.75-1.93zm29.485 6.868c-.933-2.432-.09-14.323 1.015-14.323.55 0 1.404 2.843 1.898 6.316.753 5.292.638 6.577-.713 7.928-1.433 1.433-1.677 1.441-2.2.079zm35.034-1.073c-.781-3.387-.251-7.085 1.234-8.61 1.104-1.133 1.026-1.582-.464-2.679-2.123-1.563-1.24-2.015 5.422-2.778 2.906-.332 4.577-.04 5.392.942 1.454 1.752 1.264 1.948-3.103 3.195-2.538.725-2.882 1.025-1.25 1.09 3.55.143 2.834 3.09-.75 3.09-2.004 0-3 .5-3 1.504 0 1.073.9 1.431 3.141 1.25 4.185-.338 4.734 1.743.972 3.688-4.32 2.233-6.975 1.992-7.594-.692zm-28.396-.849c-2.084-1.942-2.132-2.233-.645-3.876 1.438-1.59 1.445-1.84.065-2.37-2.295-.88-1.866-4.16.707-5.402 5.284-2.55 12.75-2.331 12.75.372 0 .95-1.318 1.38-4.25 1.39-2.338.009-4.925.452-5.75.985-1.113.72-.516.974 2.316.985 5.406.022 7.684 1.509 7.684 5.015 0 5.13-8.442 7.032-12.877 2.901zm4.877-1.9c-.825-.534-2.4-.97-3.5-.97-1.656 0-1.742.167-.5.97.825.533 2.4.969 3.5.969 1.656 0 1.742-.167.5-.97zm5-2.06c0-.517-.375-.94-.833-.94-.459 0-.834.655-.834 1.455 0 .801.375 1.225.834.941.458-.283.833-.938.833-1.456zm4.667 5.393c-1.888-1.887.082-13.334 2.294-13.334.556 0 2.208 1.81 3.671 4.02 1.463 2.212 2.794 3.887 2.958 3.724.164-.164-.146-2.272-.688-4.684-1.483-6.6-.715-8.24 1.9-4.06 3.478 5.558 2.666 14-1.345 14-.628 0-1.99-1.575-3.027-3.5-2.458-4.564-3.43-4.422-3.43.5 0 3.754-.788 4.88-2.333 3.334zM216.757 89.72c-2.218-5.712 5.566-11.423 11.447-8.4 1.627.838 2.75 2.24 2.75 3.437 0 3.146-4.533 6.672-9.142 7.111-3.6.344-4.184.096-5.055-2.148zm10.997-2.237c1.43-1.429 1.589-3.8.256-3.8-.52 0-2.207 1.111-3.75 2.469l-2.806 2.468 2.55.032c1.402.017 3.09-.509 3.75-1.169zm-7.419-2.351c.342-.89.174-1.292-.393-.941-.543.336-.988 1.034-.988 1.552 0 1.438.717 1.121 1.381-.611z" style="fill:#000" transform="translate(-173.974 -77.974)"/></svg>