<svg xmlns="http://www.w3.org/2000/svg" width="65" height="65"><path d="M70.084 91.185v-32.5h65v65h-65zm14.82 6.75c.214-1.513-.195-2.25-1.25-2.25-1.997 0-2.023.17.92-6.15 3.076-6.609 3.191-8.85.454-8.85-2.53 0-6.968 9.032-7.721 15.713l-.499 4.425 3.888-.319c3.152-.258 3.948-.744 4.207-2.569zm10.98 1.55c2.125-2.125 1.346-3.8-1.769-3.8-3.872 0-3.093-2.537 1.033-3.362 3.385-.678 4.08-3.638.852-3.638-3.092 0-1.779-2.32 1.912-3.38 4.371-1.253 4.448-4.62.106-4.62-1.686 0-3.903.449-4.927.996-3.36 1.799-7.538 16.14-5.34 18.338 1.118 1.118 6.857.742 8.133-.534zm12.35.12c2.232-1.195 5.252-7.459 4.322-8.964-.814-1.318-5.2-1.204-6.042.156-.377.612-.067 1.495.691 1.964 1.138.704 1.075 1.156-.364 2.595-2.914 2.915-4.015.443-2.19-4.914 2.003-5.88 4.281-8.05 5.113-4.873.656 2.51 3.06 2.483 4.654-.05 2.813-4.466-6.183-6.752-10.112-2.57-4.418 4.702-6.656 13.903-4.022 16.536 1.492 1.492 5.279 1.55 7.95.12zm14.31.457c3.847-1.476 8.01-14.9 5.544-17.871-1.297-1.563-4.656-1.96-7.465-.882-3.37 1.293-7.726 13.841-6.193 17.838.604 1.574 5.082 2.079 8.114.915zm-4.123-5.586c1.305-5.198 3.764-9.79 5.243-9.79 1.625 0 1.586.288-1.073 8-1.425 4.132-5.16 5.736-4.17 1.79z" style="fill:#000" transform="translate(-70.084 -58.685)"/></svg>