<?xml version="1.0" encoding="UTF-8" standalone="no"?>
<!-- Created with Inkscape (http://www.inkscape.org/) -->

<svg
   version="1.1"
   id="svg182"
   width="74.956207"
   height="43.151196"
   viewBox="0 0 74.956207 43.151196"
   sodipodi:docname="cabecera_seccion_marcas-1500x200px.jpg"
   xmlns:inkscape="http://www.inkscape.org/namespaces/inkscape"
   xmlns:sodipodi="http://sodipodi.sourceforge.net/DTD/sodipodi-0.dtd"
   xmlns="http://www.w3.org/2000/svg"
   xmlns:svg="http://www.w3.org/2000/svg">
  <defs
     id="defs186" />
  <sodipodi:namedview
     id="namedview184"
     pagecolor="#ffffff"
     bordercolor="#666666"
     borderopacity="1.0"
     inkscape:showpageshadow="2"
     inkscape:pageopacity="0.0"
     inkscape:pagecheckerboard="0"
     inkscape:deskcolor="#d1d1d1"
     showgrid="false" />
  <g
     inkscape:groupmode="layer"
     inkscape:label="Image"
     id="g188"
     transform="translate(-38.283345,-31.618602)">
    <path
       d="m 64.173101,73.873199 c -8.3971,-1.35191 -19.4969,-7.20858 -23.1428,-12.21096 -2.6539,-3.64141 -2.9868,-4.81782 -2.627,-9.28453 0.4743,-5.8897 2.8536,-9.48441 9.0452,-13.66611 15.7889,-10.66343 47.1899,-9.0414 60.063899,3.10261 18.0976,17.07148 -9.523399,37.5033 -43.339299,32.05899 z m -9.1484,-15.20191 c 0.6796,-0.8188 0.8596,-3.32147 0.4735,-6.58137 -0.677,-5.71648 -2.3095,-7.09742 -8.3902,-7.09742 h -2.9349 v 7.5 7.5 h 4.8776 c 2.8223,0 5.3395,-0.55672 5.974,-1.32121 z m -6.8516,-3.17879 c 0,-1.02996 0.6554,-1.52043 1.75,-1.30963 2.1078,0.40593 1.9749,2.18068 -0.1972,2.63295 -0.906,0.18865 -1.5528,-0.36259 -1.5528,-1.32332 z m 0,-5.5 c 0,-0.55 0.675,-1 1.5,-1 0.825,0 1.5,0.45 1.5,1 0,0.55 -0.675,1 -1.5,1 -0.825,0 -1.5,-0.45 -1.5,-1 z m 14.7929,2.8631 c 0.238,-5.37636 -0.013,-6.73366 -1.3403,-7.2429 -2.6645,-1.02246 -2.969,-0.16882 -2.6183,7.33849 0.2819,6.0346 0.5952,7.10577 2,6.83806 1.3173,-0.25104 1.727,-1.70125 1.9586,-6.93365 z m 15.0219,5.3869 c -0.2013,-1.06112 -1.4226,-1.87567 -3.1025,-2.06924 l -2.7707,-0.31924 3.132,-3.95444 c 4.0549,-5.11977 2.8484,-7.14942 -3.986,-6.70524 -3.8215,0.24837 -4.5876,0.63213 -4.5876,2.29816 0,1.30179 0.7714,2.10971 2.2097,2.31427 2.1862,0.31093 2.1784,0.35751 -0.7318,4.37493 -1.6178,2.23336 -2.6981,4.45443 -2.4007,4.93573 0.2975,0.48129 3.2473,0.87507 6.5551,0.87507 5.1877,0 5.9687,-0.24053 5.6825,-1.75 z m 6.1371,0.54799 c 1.5228,-0.95104 2.4638,-0.9135 4.5066,0.1798 4.4573,2.38546 4.9556,0.13157 1.6164,-7.31086 -1.6452,-3.66681 -3.4657,-6.66693 -4.0457,-6.66693 -1.2457,0 -6.0292,10.41283 -6.0292,13.12443 0,2.16722 1.2256,2.37612 3.9519,0.67356 z m 1.0481,-4.79799 c 0,-0.55 0.45,-1 1,-1 0.55,0 1,0.45 1,1 0,0.55 -0.45,1 -1,1 -0.55,0 -1,-0.45 -1,-1 z m 14.981699,3.07766 0.5693,-2.41183 1.7476,2.66708 c 1.9061,2.90916 4.7014,3.58214 4.7014,1.13191 0,-0.84435 -0.7377,-2.66109 -1.6394,-4.03719 -1.5524,-2.36927 -1.5241,-2.6247 0.5333,-4.81473 1.9466,-2.07207 2.0101,-2.44766 0.6101,-3.60958 -1.31,-1.08718 -1.9411,-0.94136 -3.9031,0.90188 -2.3319,2.19076 -2.3424,2.19129 -2.877099,0.14678 -0.3255,-1.24503 -1.3599,-2.05198 -2.6302,-2.05198 -1.9206,0 -2.0936,0.56481 -2.0936,6.83333 0,3.75834 0.3156,7.14889 0.7012,7.53457 1.3574,1.35739 3.7175,0.0947 4.280499,-2.29024 z"
       style="fill:#000000"
       id="path406" />
  </g>
</svg>
