<?xml version="1.0" encoding="UTF-8" standalone="no"?>
<!-- Created with Inkscape (http://www.inkscape.org/) -->

<svg
   version="1.1"
   id="svg182"
   width="966.93335"
   height="347.621"
   viewBox="0 0 966.93335 347.62101"
   sodipodi:docname="rubiks-cube-how-solve-the-rubik-cube-stage-blog-rubik-official-website-19.png"
   xmlns:inkscape="http://www.inkscape.org/namespaces/inkscape"
   xmlns:sodipodi="http://sodipodi.sourceforge.net/DTD/sodipodi-0.dtd"
   xmlns:xlink="http://www.w3.org/1999/xlink"
   xmlns="http://www.w3.org/2000/svg"
   xmlns:svg="http://www.w3.org/2000/svg">
  <defs
     id="defs186">
    <linearGradient
       inkscape:collect="always"
       id="linearGradient914">
      <stop
         style="stop-color:#751818;stop-opacity:1;"
         offset="0"
         id="stop910" />
      <stop
         style="stop-color:#000000;stop-opacity:0;"
         offset="1"
         id="stop912" />
    </linearGradient>
    <linearGradient
       inkscape:collect="always"
       xlink:href="#linearGradient914"
       id="linearGradient920"
       x1="9.8966265"
       y1="183.70715"
       x2="976.83002"
       y2="183.70715"
       gradientUnits="userSpaceOnUse" />
  </defs>
  <sodipodi:namedview
     id="namedview184"
     pagecolor="#ffffff"
     bordercolor="#666666"
     borderopacity="1.0"
     inkscape:showpageshadow="2"
     inkscape:pageopacity="0.0"
     inkscape:pagecheckerboard="0"
     inkscape:deskcolor="#d1d1d1"
     showgrid="false" />
  <g
     inkscape:groupmode="layer"
     inkscape:label="Image"
     id="g188"
     transform="translate(-9.896626,-9.896653)">
    <path
       style="fill:#000000;fill-opacity:1;stroke:url(#linearGradient920);stroke-width:1.06667;stroke-opacity:1"
       d="m 189.62999,355.91962 c -1.46667,-0.573 -21.67644,-20.03011 -44.9106,-43.23803 l -42.24394,-42.19621 -0.55562,11.72239 c -0.63623,13.42324 -2.533508,18.1614 -9.065815,22.64055 -3.858391,2.64566 -3.893155,2.64868 -34.343163,2.99022 -19.550331,0.21927 -31.863482,-0.0674 -34.336435,-0.79955 -5.42471,-1.60595 -9.419781,-5.05689 -11.721673,-10.12516 -1.883683,-4.14746 -1.976995,-9.6989 -1.999328,-118.94707 l -0.02343,-114.596552 2.262559,-4.67383 c 1.363539,-2.81669 3.982088,-5.8114 6.590092,-7.53677 l 4.327532,-2.86295 h 50.743243 c 49.292868,0 51.015808,0.0694 60.279178,2.42812 10.28493,2.61882 26.23347,9.69255 34.18039,15.16017 7.26733,5.00006 18.00249,15.35306 23.64729,22.80547 4.68334,6.18305 15.25464,26.360432 15.28771,29.179572 0.0108,0.92071 1.0393,1.07825 3.48201,0.53333 1.90667,-0.42533 16.42667,-0.77333 32.26667,-0.77333 30.85996,0 32.21349,0.20931 37.23502,5.75804 l 2.02999,2.2431 1.57549,-2.24933 c 0.86653,-1.23713 3.5519,-3.14685 5.9675,-4.24381 3.94765,-1.79269 7.38671,-1.99685 33.992,-2.01791 l 29.6,-0.0234 V 101.2544 c 0,-14.669752 0.1779,-16.106232 2.40363,-19.408992 1.32199,-1.96171 4.08199,-4.55269 6.13333,-5.75775 3.44922,-2.02622 5.7753,-2.21774 30.92971,-2.5465 31.25069,-0.40845 36.35122,0.26485 41.36206,5.46006 4.87887,5.05838 5.57127,7.99163 5.57127,23.601712 v 14.16738 l 12,0.65302 c 28.27925,1.53892 50.68753,11.68068 68.90169,31.18422 l 7.63165,8.17189 v -11.58177 c 0,-6.36997 0.47197,-13.22748 1.04885,-15.23889 1.3866,-4.83483 6.99845,-10.49275 11.70383,-11.79994 2.07936,-0.57766 16.62065,-1.05297 32.31398,-1.05623 l 28.53334,-0.006 v -11.73329 c 0,-6.453332 -0.33712,-11.733332 -0.74916,-11.733332 -0.41203,0 -7.0811,3.6 -14.82017,8.000002 -8.49392,4.82917 -15.2845,8 -17.13263,8 -3.43268,0 -39.13963,-19.981062 -42.23138,-23.632032 -1.6556,-1.95507 -1.86666,-4.88353 -1.86666,-25.9002 v -23.6959 l 2.60515,-2.44742 c 3.89011,-3.65456 39.11169,-23.52445 41.69971,-23.52445 3.02671,0 38.8123,20.55326 41.82847,24.02396 2.28884,2.63376 2.39996,3.61116 2.39916,21.10219 l -8.6e-4,18.34052 27.46752,-0.36306 c 31.52919,-0.41676 36.59587,0.2487 41.62957,5.46762 1.8189,1.88582 3.81654,4.78002 4.43919,6.43155 0.68652,1.82093 1.13209,13.35187 1.13209,29.297352 v 26.29458 l 20.53333,-20.40227 c 17.76443,-17.65103 21.17692,-20.57316 25.30592,-21.669552 3.37426,-0.89599 5.80553,-0.95028 8.29808,-0.18529 l 3.5255,1.082 -0.79943,-3.9098 c -2.24353,-10.97266 0.61743,-21.39063 7.86442,-28.63761 5.83896,-5.83897 11.27348,-8.17595 20.15799,-8.66844 9.85098,-0.54607 16.77547,2.27478 23.24348,9.46876 6.12163,6.80873 8.58494,14.57103 7.88144,24.83575 -0.90614,13.221352 -9.38694,28.044502 -19.96781,34.900662 l -5.38049,3.48644 6.13546,6.62732 c 3.37449,3.64501 6.49544,6.68356 6.93544,6.75231 0.44,0.0688 0.8,-1.44463 0.8,-3.3631 0,-5.49799 4.06443,-18.7484 8.11576,-26.45809 9.45792,-17.998452 27.02923,-32.213312 46.89543,-37.937542 5.1304,-1.47827 12.25371,-1.90368 37.78882,-2.25678 20.8565,-0.28841 32.77591,-0.0432 35.34952,0.72708 5.49515,1.64481 11.25767,8.36642 12.11413,14.13039 0.37727,2.53901 0.53229,16.856382 0.34448,31.816382 -0.31597,25.16904 -0.50506,27.47849 -2.53248,30.92971 -3.86734,6.58334 -8.03994,8.53696 -18.23339,8.53696 -4.89992,0 -8.89076,0.36 -8.86855,0.8 0.0222,0.44 2.22073,2.48 4.88559,4.53333 10.0001,7.70528 19.49973,19.07513 24.42954,29.23907 5.96966,12.30784 7.94226,20.81152 7.96206,34.32365 0.0522,35.64065 -22.61773,65.50357 -56.25714,74.10709 -7.14921,1.82846 -11.9434,2.06353 -42.08403,2.06353 -37.4804,0 -37.8591,-0.059 -42.78515,-6.66555 -1.42213,-1.90728 -3.00694,-4.78454 -3.52181,-6.39392 l -0.93611,-2.92614 -12.8,10.23346 c -7.04,5.6284 -14.09616,10.90517 -15.68036,11.72614 -3.81423,1.97664 -11.90767,1.8984 -15.87552,-0.15345 -1.90492,-0.98508 -15.05565,-16.49849 -32.74703,-38.63041 L 689.36333,236.10253 688.83,264.86626 c -0.48743,26.28781 -0.71697,29.0755 -2.66667,32.38557 -1.17333,1.99201 -3.48756,4.63201 -5.14274,5.86667 -2.87482,2.14443 -4.41166,2.25878 -34.36526,2.55685 -26.45288,0.26323 -31.84798,0.0575 -34.50309,-1.31548 -2.78665,-1.44102 -3.49334,-1.44697 -6.16807,-0.0519 -2.46157,1.28387 -8.76792,1.57679 -34.0631,1.58214 -30.4491,0.006 -31.11151,-0.0395 -34.66667,-2.40204 -1.99342,-1.32473 -4.7044,-4.54644 -6.0244,-7.15935 -2.06786,-4.09326 -2.4,-6.42217 -2.4,-16.82789 v -12.07715 l -8.8,8.97932 c -14.52041,14.81631 -30.72397,23.80946 -50.08837,27.79957 -11.57745,2.38558 -102.16684,2.52162 -106.69346,0.16022 -2.52124,-1.31524 -3.32607,-1.31574 -5.9561,-0.003 -2.35601,1.17534 -11.06918,1.66799 -38.68484,2.18731 -32.89815,0.61864 -48.92745,0.004 -62.42418,-2.39191 -3.06309,-0.54385 -3.36692,-0.32184 -4.01852,2.93618 -0.54818,2.74091 -5.49062,8.331 -22.23081,25.14389 -11.83925,11.89068 -23.06346,22.34902 -24.9427,23.24078 -3.81908,1.81227 -11.30533,2.02881 -15.36103,0.44432 z m 29.00281,-32.65275 c 14.852,-14.77742 20.06386,-20.62395 20.06386,-22.50707 0,-1.91833 -8.93453,-11.4987 -36.32937,-38.95551 -19.98114,-20.02635 -37.09265,-37.25497 -38.02557,-38.28583 -1.57871,-1.74446 -1.07482,-2.52132 7.27401,-11.21471 10.7333,-11.17628 15.81832,-18.62568 20.22326,-29.62649 5.24271,-13.09306 6.608,-21.49459 5.97701,-36.7806 -0.62958,-15.25143 -2.77893,-23.57673 -9.3836,-36.34641 -8.42378,-16.286772 -22.14965,-29.687832 -38.80089,-37.882682 -17.46358,-8.59465 -19.44518,-8.84013 -74.212615,-9.19378 -46.54916,-0.30059 -48.127388,-0.24458 -49.600604,1.76007 -2.276562,3.0978 -2.285355,224.209632 -0.0091,227.325602 1.418229,1.94136 3.221674,2.09041 28.907948,2.38915 23.477638,0.27305 27.761268,0.0788 29.954074,-1.35792 l 2.558746,-1.67655 v -83.1754 -83.17542 h 12.861021 c 7.07355,0 14.96545,0.52991 17.53758,1.17758 5.76528,1.45171 12.65704,7.19422 15.68619,13.07037 2.74643,5.32776 3.04843,15.34813 0.6325,20.9866 -0.88794,2.07235 -8.04257,10.23235 -15.89918,18.13334 -15.77914,15.86829 -19.094058,21.07944 -21.915973,34.45262 -2.465997,11.68647 -0.14544,25.13034 6.171523,35.75399 3.01281,5.06685 92.67866,95.09218 94.71245,95.09218 0.85408,0 10.5816,-8.98341 21.61673,-19.96313 z M 784.13653,281.9699 c 11.77223,-9.42488 19.89347,-16.66733 19.89347,-17.74084 0,-0.99775 -12.79142,-17.83071 -28.42538,-37.40659 -15.63395,-19.57586 -28.91803,-36.22297 -29.52019,-36.99359 -0.83032,-1.06262 3.07341,-5.57508 16.15871,-18.67844 9.48944,-9.50253 17.25353,-17.98729 17.25353,-18.85502 0,-2.11473 -38.4578,-40.5321 -40.57475,-40.5321 -2.38099,0 -48.16748,46.52118 -51.44124,52.26667 -8.39668,14.73626 -7.94286,35.43194 1.06504,48.57095 4.14456,6.04529 67.41007,85.01438 69.36828,86.58668 2.2637,1.81756 3.27905,1.15089 26.22253,-17.21772 z m -431.91606,9.45057 c 1.49332,-1.49332 1.67619,-10.20688 1.67619,-79.86939 0,-64.98284 -0.24738,-78.39852 -1.46429,-79.40846 -1.0338,-0.85798 -9.73574,-1.13156 -29.6,-0.9306 l -28.13571,0.28464 -0.27702,50.93333 -0.277,50.93334 h -9.90966 c -6.28528,0 -10.3778,-0.46815 -11.18966,-1.28 -0.95813,-0.95814 -1.28,-13.51112 -1.28,-49.92001 0,-36.40888 -0.32186,-48.96186 -1.28,-49.92 -2.01742,-2.01743 -55.62394,-1.80394 -57.3105,0.22824 -0.93133,1.12218 -1.16784,15.38787 -0.92402,55.73333 l 0.3277,54.2251 2.79108,7.19099 c 6.39316,16.47144 17.78266,29.4321 32.04133,36.46143 12.98667,6.40225 16.88108,6.83465 62.41156,6.92945 35.67418,0.0742 40.93166,-0.12304 42.4,-1.59139 z m 249.16671,-0.45714 c 1.44322,-2.28596 1.38378,-155.2365 -0.0613,-157.9368 -1.04786,-1.95787 -2.50728,-2.06321 -28.5867,-2.06321 -19.95303,0 -27.83316,0.35069 -28.76247,1.28 -0.97242,0.97242 -1.28,20.18378 -1.28,79.947 0,73.7849 0.11585,78.73623 1.86666,79.78247 1.1999,0.71702 11.50158,1.02172 28.84019,0.853 22.61775,-0.22007 27.13664,-0.52083 27.98366,-1.86246 z M 473.89666,288.96 c 14.45964,-4.7955 23.74731,-10.4786 34.15254,-20.89785 10.80358,-10.81813 16.25339,-19.34447 20.4741,-32.03216 2.51186,-7.55078 2.84647,-10.2528 2.90603,-23.46666 0.0726,-16.12091 -1.63645,-24.25662 -7.61321,-36.23977 -7.35254,-14.7415 -21.9773,-29.04482 -37.16839,-36.35145 -12.70399,-6.11037 -22.41655,-8.05765 -38.44853,-7.70858 l -13.76921,0.29979 v 27.73334 27.73333 l 10.80916,0.59201 c 8.66709,0.47469 11.8359,1.12039 15.99024,3.25829 12.81689,6.59579 16.30149,23.25069 7.11103,33.98769 -6.25324,7.3055 -10.10024,8.51121 -27.24376,8.53859 l -14.66667,0.0234 -0.0163,-71.73333 c -0.009,-39.45334 -0.40234,-72.341472 -0.87413,-73.084752 -0.66462,-1.04708 -7.20676,-1.2873 -29.05034,-1.06667 l -28.19254,0.28475 -0.2751,100.266672 c -0.15131,55.14667 -0.0362,100.89329 0.25589,101.65917 0.42891,1.12476 9.91611,1.32405 49.34177,1.03649 47.72498,-0.3481 48.97688,-0.4111 56.27744,-2.83232 z m 200.80547,-98.14746 c 0.19867,-73.50749 -0.0525,-101.075292 -0.93061,-102.133332 -0.9555,-1.15131 -6.75153,-1.44922 -28.19594,-1.44922 -23.11705,0 -27.2339,0.2407 -28.66939,1.67619 -1.49965,1.49965 -1.67619,12.067562 -1.67619,100.336792 0,66.49879 0.36297,99.33883 1.11347,100.74115 1.0674,1.99446 2.29207,2.0688 29.6,1.79654 l 28.48653,-0.284 z m 207.14618,99.64376 c 10.96139,-2.91708 19.27475,-7.84177 27.78169,-16.45742 13.39909,-13.57028 18.79325,-27.97358 17.81501,-47.56889 -0.65437,-13.10786 -3.34381,-21.32263 -10.46811,-31.97432 -4.28136,-6.40119 -9.20497,-11.14359 -28.39649,-27.35145 l -23.21708,-19.60756 26.66667,-0.53334 26.66667,-0.53333 0.28476,-28.19253 c 0.22061,-21.843572 -0.0196,-28.385722 -1.06667,-29.050342 -2.51514,-1.59644 -53.96164,-1.00524 -62.15143,0.71423 -21.69705,4.55536 -39.10832,20.294462 -46.01446,41.595312 -7.15254,22.06078 -1.36763,47.20927 14.52559,63.14643 3.39342,3.4028 14.82168,13.3869 25.39616,22.1869 l 19.22633,16 -27.81261,0.28473 c -18.34057,0.18775 -28.2965,0.68632 -29.23348,1.46395 -1.11347,0.92409 -1.42086,6.90124 -1.42086,27.62803 0,14.54685 0.29135,27.20807 0.64746,28.13605 0.57073,1.48731 4.45754,1.68574 32.8,1.67458 24.68769,-0.01 33.50338,-0.37215 37.97085,-1.56103 z m -683.68499,-70.356 -0.53333,-16.99636 -3.0429,4.60573 c -1.6736,2.53315 -4.99728,6.72598 -7.38596,9.31739 l -4.34308,4.71167 7.86161,7.91443 c 4.3239,4.35294 7.88758,7.80847 7.91931,7.67897 0.0317,-0.12951 -0.18231,-7.88383 -0.47565,-17.23183 z m 601.36571,7.55394 c 3.41525,-5.78844 9.69249,-8.15758 21.61411,-8.15758 h 10.0396 l -4.24304,-3.44195 c -9.20081,-7.46371 -16.87653,-15.4896 -21.57972,-22.56422 -5.24324,-7.88695 -11.97098,-25.46929 -11.98711,-31.32717 -0.005,-1.90666 -0.48954,-3.46666 -1.0762,-3.46666 -0.58667,0 -1.06667,0.56019 -1.06667,1.24488 0,0.68469 -6.29926,7.60648 -13.99838,15.38176 l -13.99837,14.13688 16.68837,20.88491 c 9.17859,11.48669 16.87045,20.8849 17.09301,20.8849 0.22255,0 1.35404,-1.60909 2.5144,-3.57575 z M 456.37871,217.44537 c 3.51526,-3.51525 3.7997,-5.26963 1.55741,-9.60576 -1.94975,-3.77038 -3.44306,-4.34295 -11.3267,-4.34295 h -6.31276 v 8.53333 8.53334 h 6.48205 c 5.74215,0 6.83795,-0.35591 9.6,-3.11796 z M 119.99219,154.96332 c 2.36479,-3.89404 1.6492,-8.9527 -1.74682,-12.34871 -2.76205,-2.76205 -3.85785,-3.11795 -9.6,-3.11795 h -6.48205 v 16.7136 16.7136 l 8.26667,-7.9136 c 4.54667,-4.35248 8.84965,-8.8736 9.5622,-10.04694 z M 782.55217,111.141 c 8.24681,-9.36889 10.76647,-21.519082 6.27783,-30.272732 -7.56954,-14.76194 -29.59202,-9.2337 -29.59202,7.42839 0,6.27935 2.83043,10.76528 8.36801,13.262382 l 4.42401,1.99495 v 6.02467 c 0,10.07307 2.68039,10.47105 10.52217,1.56234 z M 567.88259,88.756148 c -0.30176,-0.78637 -2.49204,-2.42121 -4.86729,-3.63298 l -4.31864,-2.2032 v 5.29455 c 0,5.09248 0.17303,5.39804 4.53334,8.00586 l 4.53333,2.7113 0.33396,-4.37287 c 0.18368,-2.40508 0.087,-5.01628 -0.2147,-5.80266 z m 11.51302,5.35585 c 1.60704,-1.60703 2.40493,-9.02258 1.11011,-10.31739 -0.32501,-0.32502 -2.48106,0.43498 -4.7912,1.68889 -4.06796,2.20802 -4.20053,2.45708 -4.20906,7.90722 l -0.009,5.62739 3.09894,-1.60252 c 1.70442,-0.88139 3.86442,-2.36801 4.8,-3.30359 z m -22.84049,-7.14867 c -0.007,-5.39894 -0.15913,-5.68617 -4.21133,-8 -2.31171,-1.32 -4.49432,-2.4 -4.85023,-2.4 -0.35592,0 -0.50082,2.26003 -0.32201,5.0223 0.29168,4.50589 0.76382,5.32483 4.59178,7.96456 2.34667,1.61825 4.38667,2.95821 4.53333,2.9777 0.14667,0.0195 0.26297,-2.48456 0.25846,-5.56456 z m 34.40821,0.43469 c 1.2512,-1.04922 1.86667,-3.09346 1.86667,-6.20001 0,-2.54908 -0.25913,-4.63468 -0.57583,-4.63468 -0.31671,0 -2.47671,0.96975 -4.8,2.15501 -4.14827,2.11629 -4.22417,2.26048 -4.22417,8.02459 v 5.86958 l 2.93333,-1.82458 c 1.61333,-1.00352 3.77333,-2.52898 4.8,-3.38991 z M 544.83,79.785008 c 0,-5.11414 -0.15709,-5.3918 -4.22417,-7.46667 -2.3233,-1.18526 -4.4833,-2.15501 -4.8,-2.15501 -0.31671,0 -0.57583,2.15301 -0.57583,4.78447 0,4.35193 0.36162,5.02128 4,7.40391 2.2,1.44069 4.36,2.64768 4.8,2.68219 0.44,0.0345 0.8,-2.32748 0.8,-5.24889 z m 23.46666,0.0837 c 0,-4.86015 -0.26695,-5.38548 -3.7943,-7.46667 -2.08687,-1.23128 -4.24687,-2.23869 -4.8,-2.23869 -0.55313,0 -1.0057,2.15301 -1.0057,4.78447 0,4.35193 0.36162,5.02128 4,7.40391 2.2,1.44069 4.36,2.64768 4.8,2.68219 0.44,0.0345 0.8,-2.28983 0.8,-5.16521 z m 7.93903,2.98927 c 3.52735,-2.08118 3.79431,-2.60651 3.79431,-7.46666 0,-2.87539 -0.36858,-5.22797 -0.81906,-5.22797 -0.45048,0 -2.61048,1.2173 -4.8,2.70512 -3.59829,2.4451 -3.98094,3.16281 -3.98094,7.46666 0,2.61885 0.45256,4.76155 1.00569,4.76155 0.55313,0 2.71313,-1.00741 4.8,-2.23869 z m 24.3467,-0.46642 c 3.59828,-2.4451 3.98094,-3.16281 3.98094,-7.46667 0,-5.40779 -0.81285,-5.75164 -6.00743,-2.54122 -3.29108,2.034 -3.59257,2.66061 -3.59257,7.46667 0,2.88549 0.36858,5.24634 0.81906,5.24634 0.45048,0 2.61048,-1.2173 4.8,-2.70512 z m -44.43313,-13.90207 c -0.30176,-0.78638 -2.49204,-2.42122 -4.8673,-3.63298 l -4.31863,-2.20321 v 5.2467 c 0,5.04025 0.17839,5.35237 4.53333,7.93206 l 4.53334,2.68537 0.33396,-4.29908 c 0.18368,-2.3645 0.087,-4.94248 -0.2147,-5.72886 z m 34.97968,5.35585 c 1.65494,-1.65495 2.38993,-9.03758 1.03467,-10.39284 -0.36651,-0.36652 -2.52282,0.39348 -4.79178,1.68888 -3.96817,2.26551 -4.12572,2.56976 -4.13362,7.98267 l -0.009,5.62739 3.09894,-1.60252 c 1.70442,-0.88139 3.86442,-2.368 4.8,-3.30358 z m 11.56772,-6.71399 c 1.2512,-1.04922 1.86667,-3.09346 1.86667,-6.20001 0,-2.54907 -0.25913,-4.63468 -0.57583,-4.63468 -0.3167,0 -2.4767,0.96976 -4.8,2.15501 -4.14827,2.11629 -4.22417,2.26048 -4.22417,8.02459 v 5.86958 l 2.93333,-1.82458 c 1.61334,-1.00351 3.77334,-2.52897 4.8,-3.38991 z M 544.83,66.093078 c 0,-4.85721 -0.22571,-5.26378 -4.14523,-7.46667 -2.27988,-1.28136 -4.46619,-2.32975 -4.85845,-2.32975 -0.39227,0 -0.56692,2.26407 -0.3881,5.03127 0.28218,4.36683 0.80375,5.35289 3.94951,7.46667 1.99343,1.33946 4.03343,2.43539 4.53334,2.43539 0.49991,0 0.90893,-2.31161 0.90893,-5.13691 z m 23.46666,0 c 0,-4.85721 -0.2257,-5.26378 -4.14522,-7.46667 -2.27989,-1.28136 -4.46619,-2.32975 -4.85846,-2.32975 -0.39226,0 -0.56691,2.26407 -0.38809,5.03127 0.28217,4.36683 0.80375,5.35289 3.94951,7.46667 1.99343,1.33946 4.03343,2.43539 4.53333,2.43539 0.49992,0 0.90893,-2.31161 0.90893,-5.13691 z m 8.26667,3.01527 c 3.16925,-1.93233 3.46667,-2.57258 3.46667,-7.46268 0,-2.94196 -0.21257,-5.34901 -0.47237,-5.34901 -0.25979,0 -2.17979,1.00741 -4.26666,2.23869 -3.52735,2.08119 -3.79431,2.60652 -3.79431,7.46667 0,2.87539 0.36,5.22618 0.8,5.22399 0.44,-0.002 2.36,-0.95514 4.26667,-2.11766 z m -20,-9.50633 c 0,-4.86015 -0.26696,-5.38548 -3.7943,-7.46667 -2.08687,-1.23128 -4.24687,-2.23869 -4.8,-2.23869 -0.55314,0 -1.0057,2.15301 -1.0057,4.78447 0,4.35193 0.36162,5.02128 4,7.40391 2.2,1.44069 4.36,2.64768 4.8,2.6822 0.44,0.0345 0.8,-2.28983 0.8,-5.16522 z m 30.70419,3.43594 c 4.39182,-2.71782 5.56248,-4.62845 5.56248,-9.07851 0,-4.67581 -1.08498,-5.01919 -6.13334,-1.94115 -3.16924,1.93233 -3.46666,2.57258 -3.46666,7.46268 0,2.94196 0.25688,5.34901 0.57086,5.34901 0.31397,0 1.87397,-0.80641 3.46666,-1.79203 z m -12.35326,-6.34533 c 4.24189,-2.67779 4.349,-2.87354 2.37881,-4.34796 -5.71927,-4.28009 -7.28541,-4.56311 -11.64498,-2.10436 -2.2654,1.27766 -4.27112,2.80302 -4.45716,3.38968 -0.31078,0.9801 6.5663,5.71055 8.46026,5.81945 0.45166,0.026 2.82004,-1.21459 5.26307,-2.75681 z M 544.83,53.110038 c 0,-5.04217 -0.22168,-5.45989 -4.24548,-8 -2.335,-1.47403 -4.495,-2.68005 -4.8,-2.68005 -0.30499,0 -0.55452,2.35126 -0.55452,5.22502 0,5.00722 0.18898,5.33897 4.53333,7.95838 2.49333,1.50335 4.65333,2.75209 4.8,2.77498 0.14667,0.0229 0.26667,-2.35236 0.26667,-5.27833 z m 58.917,-0.49041 c 0.90718,-1.29996 1.10579,-10.18964 0.22766,-10.18964 -0.32378,0 -2.48008,1.08 -4.79179,2.4 -4.06508,2.32118 -4.20338,2.58677 -4.21133,8.087 l -0.009,5.687 4,-2.43069 c 2.2,-1.33688 4.35265,-2.93603 4.78367,-3.55367 z m -40.31131,-2.82833 c 2.08687,-1.23128 3.79431,-2.56131 3.79431,-2.95561 0,-0.39431 -2.08848,-1.8578 -4.64108,-3.25221 l -4.64107,-2.5353 -4.4256,2.48732 c -2.43407,1.36803 -4.42559,2.8318 -4.42559,3.25283 0,1.18819 6.71759,5.20358 8.73903,5.22369 0.99313,0.01 3.51313,-0.98944 5.6,-2.22072 z m 23.66841,0.0184 c 1.9759,-1.22119 3.59256,-2.55121 3.59256,-2.95562 0,-0.4044 -2.07474,-1.86865 -4.61054,-3.25389 l -4.61053,-2.51861 -4.44792,2.54089 c -2.44635,1.39749 -4.4516,2.85375 -4.45613,3.23614 -0.0141,1.19138 6.82068,5.13454 8.93256,5.15344 1.10408,0.01 3.62408,-0.98117 5.6,-2.20236 z m -35.75266,-6.50943 c 2.27987,-1.28136 4.14522,-2.7276 4.14522,-3.21386 0,-0.48626 -2.19557,-1.9508 -4.87904,-3.25453 l -4.87904,-2.37042 -3.87537,2.24753 c -2.13146,1.23614 -4.02307,2.69061 -4.20359,3.23216 -0.31881,0.95643 6.77508,5.61518 8.62515,5.66437 0.50678,0.0135 2.78678,-1.02388 5.06667,-2.30525 z m 23.46666,0 c 2.27988,-1.28136 4.14523,-2.67395 4.14523,-3.09464 0,-1.05259 -7.24617,-5.24227 -9.06667,-5.24227 -1.80793,0 -9.06666,4.18634 -9.06666,5.22903 0,0.83811 7.47683,5.37472 8.92144,5.41313 0.50678,0.0135 2.78678,-1.02388 5.06666,-2.30525 z m 23.46667,0 c 2.27987,-1.28136 4.14523,-2.68221 4.14523,-3.113 0,-1.15252 -6.90911,-5.22391 -8.86493,-5.22391 -1.90872,0 -9.27386,4.11459 -9.25796,5.17203 0.0119,0.79177 7.51028,5.37564 8.91099,5.44742 0.50679,0.026 2.78679,-1.00117 5.06667,-2.28254 z m -31.39928,-9.93847 c 0.19005,-0.58752 -1.71585,-2.16179 -4.23532,-3.49836 l -4.58087,-2.43015 -4.47674,2.4317 c -2.46221,1.33744 -4.32374,2.9117 -4.13673,3.49837 0.18701,0.58666 2.21196,2.12236 4.49988,3.41265 l 4.15986,2.34599 4.21219,-2.34599 c 2.31671,-1.29029 4.36769,-2.82669 4.55773,-3.41421 z m 23.46667,0 c 0.19005,-0.58752 -1.76246,-2.18652 -4.33891,-3.55332 l -4.68445,-2.48509 -4.38274,2.7667 c -2.4105,1.52168 -4.38273,2.97347 -4.38273,3.22619 0,0.25272 2.02299,1.66586 4.49552,3.1403 l 4.49551,2.6808 4.22613,-2.35368 c 2.32438,-1.29452 4.38162,-2.83438 4.57167,-3.4219 z m -15.18313,-3.83714 c 2.08687,-1.23128 3.7943,-2.66152 3.7943,-3.17832 0,-0.51679 -2.02514,-1.97278 -4.50032,-3.23552 l -4.50032,-2.29589 -4.56635,2.42244 c -2.51149,1.33234 -4.56634,2.82427 -4.56634,3.3154 0,1.01123 7.32698,5.09137 9.27236,5.16344 0.6998,0.0259 2.9798,-0.96026 5.06667,-2.19155 z m 380.36591,87.305362 c -5.96838,-3.06044 -8.8786,-8.14341 -8.23579,-14.3846 0.63109,-6.127292 3.20841,-9.682452 8.81831,-12.163972 6.10075,-2.69865 11.26086,-1.7884 16.36178,2.88624 3.62974,3.32641 3.81743,3.83989 3.81743,10.443662 0,6.23379 -0.32159,7.28093 -3.13936,10.22205 -2.72173,2.84087 -8.2776,5.37156 -11.83462,5.39067 -0.60903,0.003 -3.21351,-1.07405 -5.78775,-2.39405 z m 12.38084,-1.47716 c 2.02118,-0.95912 4.42172,-3.1881 5.33454,-4.9533 3.52368,-6.81405 1.0736,-15.184842 -5.33454,-18.225702 -4.99549,-2.37052 -8.23834,-2.19217 -12.5125,0.68818 -4.81146,3.24245 -6.49225,6.71454 -5.94359,12.277932 0.50439,5.11443 2.87193,8.35736 7.63698,10.46071 4.26469,1.88247 6.43458,1.83277 10.81911,-0.24782 z m -12.41911,-11.72522 v -8.135702 l 5.44703,0.52339 c 7.25704,0.69731 9.12202,3.31231 5.17631,7.258022 l -2.17667,2.17667 2.1916,2.78617 c 3.2279,4.1036 1.42344,4.64615 -1.92034,0.57739 -3.69323,-4.49398 -6.5846,-4.60385 -6.5846,-0.25023 0,1.76 -0.48,3.2 -1.06666,3.2 -0.61788,0 -1.06667,-3.42301 -1.06667,-8.13571 z m 9.40752,-3.33095 c 0.29886,-2.104312 -0.12825,-2.400002 -3.46667,-2.400002 -3.37534,0 -3.80752,0.31036 -3.80752,2.734252 0,2.44224 0.37022,2.69855 3.46667,2.39999 2.65701,-0.25617 3.54627,-0.89477 3.80752,-2.73424 z"
       id="path300" />
  </g>
</svg>
