<svg width="71.738" height="71.883" xmlns="http://www.w3.org/2000/svg"><path d="M198.932 96.229c-.555-1.43-.972-1.54-2.148-.564-1.143.949-1.623.947-2.213-.008-.415-.671-1.505-.931-2.424-.579-.976.374-1.67.152-1.67-.534 0-.72-.775-.928-2-.54-1.443.459-2 .18-2-1s-.557-1.458-2-1c-1.435.456-2 .18-2-.976 0-.98-.686-1.496-1.75-1.317-1.16.194-1.658-.267-1.476-1.37.208-1.26-.256-1.523-1.919-1.088-1.744.456-2.062.233-1.555-1.088.465-1.212.088-1.66-1.399-1.66-1.58 0-1.894-.447-1.4-2 .45-1.42.179-2-.933-2-1.752 0-2.092-2.076-.588-3.58.64-.64.615-2.304-.073-4.794-1.453-5.262-.549-5.54 2.187-.674 1.262 2.247 2.77 3.929 3.35 3.738.581-.19 1.281-2.786 1.556-5.768.536-5.806 1.39-5.693 2.52.335.694 3.695 2.48 5.242 2.48 2.146 0-2.482-3.06-12.405-3.82-12.388-2.046.046-3.085 2.055-3.366 6.504l-.314 4.98-2.805-4.317c-2.57-3.957-3.072-4.266-6-3.703-2.836.546-3.002.46-1.48-.767 1.269-1.022 1.423-1.674.593-2.505-.83-.83-.809-1.501.083-2.576.922-1.11.929-1.625.03-2.18-.838-.518-.692-1 .506-1.67 1.319-.738 1.43-1.248.516-2.35-.917-1.105-.809-1.546.502-2.049.919-.352 1.427-1.275 1.13-2.05-.298-.774.134-1.667.96-1.984.825-.317 1.38-1.312 1.233-2.212-.18-1.102.332-1.534 1.57-1.322 1.449.247 1.699-.123 1.182-1.75-.515-1.624-.22-2.064 1.381-2.064 1.4 0 1.856-.47 1.46-1.5-.399-1.041.07-1.5 1.532-1.5 1.247 0 2.107-.64 2.107-1.568 0-1.112.58-1.383 2-.932 1.457.462 2 .18 2-1.04 0-1.096.532-1.47 1.538-1.084.881.338 1.785-.054 2.117-.919.428-1.115.918-1.227 1.881-.428.97.806 1.574.62 2.365-.724.865-1.47 1.23-1.551 1.964-.435.731 1.11 1.11 1.016 2-.5.922-1.57 1.25-1.64 2.04-.435.756 1.151 1.238 1.191 2.43.202 1.058-.879 1.683-.918 2.165-.137.492.795 1.044.793 2.008-.007 1.003-.832 1.563-.69 2.273.58.64 1.143 1.166 1.321 1.64.555 1.017-1.646 2.58-1.38 2.58.439 0 1.112.58 1.383 2 .932 1.382-.438 2-.18 2 .84 0 .98.667 1.298 2 .95 1.414-.37 2-.03 2 1.161 0 1.247.536 1.514 2.063 1.03 1.627-.517 1.998-.267 1.75 1.182-.219 1.281.216 1.748 1.436 1.544 1.184-.2 1.75.356 1.75 1.718 0 1.442.458 1.837 1.616 1.393 1.284-.493 1.475-.18.932 1.531-.5 1.577-.264 2.151.885 2.151.9 0 1.567.851 1.567 2 0 1.1.498 2 1.107 2s.842.692.517 1.538c-.338.882.054 1.785.919 2.117 1.155.444 1.242.9.37 1.95-.876 1.056-.767 1.514.475 1.99.886.34 1.612.965 1.612 1.388 0 .95-6.186 4.02-7.04 3.493-.342-.212-1.18-2.88-1.862-5.93-.683-3.05-1.659-5.545-2.17-5.545-1.282 0-1.178 1.129.74 8.029 1.273 4.578 2.043 5.888 3.25 5.532.87-.257 2.932-.788 4.582-1.18 2.581-.614 2.829-.505 1.774.776-.964 1.171-.966 1.75-.008 2.708.957.957.912 1.407-.21 2.1-1.182.73-1.203 1.152-.119 2.458 1.103 1.33 1.044 1.577-.381 1.577-1.2 0-1.517.546-1.093 1.881.388 1.222.021 2.103-1.045 2.512-1.357.52-1.42.898-.366 2.169 1.073 1.292.942 1.627-.818 2.087-1.277.334-1.885 1.094-1.557 1.95.327.852-.108 1.4-1.113 1.4-1.018 0-1.538.672-1.357 1.75.205 1.22-.263 1.656-1.544 1.437-1.473-.252-1.701.115-1.151 1.848.589 1.856.388 2.069-1.413 1.497-1.522-.483-2.099-.236-2.099.901 0 .9-.85 1.568-2 1.568-1.1 0-1.887.562-1.75 1.25.14.698-.522 1.12-1.5.956-.962-.162-1.75.228-1.75.866 0 .68-.854.937-2.061.622-1.273-.333-2.274.014-2.617.909-.441 1.15-.855 1.199-2.015.236-1.156-.96-1.643-.914-2.341.216-.69 1.115-1.147 1.163-2.09.221-.942-.942-1.483-.831-2.47.508-1.19 1.615-1.303 1.612-1.951-.06zM187.73 70.646c.51-1.948 5.407-3.501 6.33-2.007.294.476 1.16.866 1.926.866.881 0-.125-2.196-2.75-6-2.277-3.3-4.67-6-5.319-6-1.276 0-2.411 5.257-2.429 11.25-.011 3.912 1.402 5.105 2.242 1.891zm-.253-7.141c0-3.423.703-3.76 2.608-1.25 1.928 2.54 1.684 4.25-.608 4.25-1.555 0-2-.667-2-3zm14 4.681c0-.175-.705-2.695-1.568-5.599-.862-2.904-1.392-5.456-1.177-5.67.215-.216 1.778-.669 3.473-1.008 3.047-.61 3.095-.554 4.336 4.99 1.4 6.26 3.563 7.824 2.564 1.856-.345-2.063-.903-4.758-1.241-5.99-.474-1.728-.092-2.434 1.67-3.086 4.201-1.554.275-2.165-4.683-.728-2.68.776-6.786 1.91-9.124 2.521-2.337.61-4.25 1.55-4.25 2.09 0 .54 1.095.706 2.437.37 2.198-.553 2.545-.188 3.55 3.73 1.62 6.328 1.845 6.843 2.982 6.843.567 0 1.031-.144 1.031-.319zm19.557-4.8c2.444-.615 4.443-1.515 4.443-2 0-1.11-.733-1.105-4.684.028-2.487.713-3.295.587-3.744-.582-.997-2.598-.645-3.152 2.428-3.827 1.65-.363 3-1.074 3-1.58 0-1.15-.274-1.147-3.417.048-2.09.795-2.73.624-3.576-.956-.906-1.692-.544-2.07 2.981-3.127 2.207-.661 4.012-1.629 4.012-2.15 0-.522-.643-.703-1.429-.401-.786.302-3.036.85-5 1.218-1.964.369-3.57.865-3.57 1.103 0 1.325 3.313 13.345 3.678 13.345.24 0 2.435-.504 4.878-1.12zm8.624 27.869c.21-1.477 1.006-2.25 2.32-2.25 1.312 0 2.109.773 2.319 2.25.262 1.845-.155 2.25-2.32 2.25s-2.582-.405-2.32-2.25zm-61.67-15.767c.345-.559 1.046-.757 1.558-.44 1.387.856 1.129 1.457-.628 1.457-.857 0-1.276-.458-.93-1.017zm-1.51-3.924c0-1.677 1.773-2.092 2.363-.554.348.908-.003 1.495-.895 1.495-.808 0-1.469-.424-1.469-.941zm-1-4c0-1.677 1.773-2.092 2.363-.554.348.908-.003 1.495-.895 1.495-.808 0-1.469-.424-1.469-.941z" style="fill:#000" transform="translate(-164.739 -25.608)"/></svg>