<?xml version="1.0" encoding="UTF-8" standalone="no"?>
<!-- Created with Inkscape (http://www.inkscape.org/) -->

<svg
   version="1.1"
   id="svg387"
   width="77.773422"
   height="81.875504"
   viewBox="0 0 77.773422 81.875504"
   sodipodi:docname="cabecera_seccion_marcas-1500x200px.jpg"
   xmlns:inkscape="http://www.inkscape.org/namespaces/inkscape"
   xmlns:sodipodi="http://sodipodi.sourceforge.net/DTD/sodipodi-0.dtd"
   xmlns="http://www.w3.org/2000/svg"
   xmlns:svg="http://www.w3.org/2000/svg">
  <defs
     id="defs391" />
  <sodipodi:namedview
     id="namedview389"
     pagecolor="#ffffff"
     bordercolor="#666666"
     borderopacity="1.0"
     inkscape:showpageshadow="2"
     inkscape:pageopacity="0.0"
     inkscape:pagecheckerboard="0"
     inkscape:deskcolor="#d1d1d1"
     showgrid="false" />
  <g
     inkscape:groupmode="layer"
     inkscape:label="Image"
     id="g393"
     transform="translate(-192.06758,-38.452788)">
    <path
       d="m 204.43123,119.39434 c 0.66394,-1.07429 16.47023,-6.49037 17.10091,-5.85969 0.43578,0.43578 -15.4002,6.81624 -16.86132,6.79358 -0.44496,-0.007 -0.55277,-0.42715 -0.23959,-0.93389 z m 0.18483,-11.98655 c -0.349,-4.72566 -1.15957,-13.020927 -1.80125,-18.433937 l -1.16671,-9.84182 -2.79535,0.55907 c -1.53745,0.30749 -3.06437,0.12381 -3.39315,-0.40817 -0.32879,-0.53199 0.44126,-0.97339 1.71122,-0.9809 1.26996,-0.008 3.24696,-0.2655 4.39334,-0.57331 1.69857,-0.45608 2.2607,0.0554 3.03742,2.76366 1.37285,4.78683 3.86148,4.36051 3.94296,-0.67547 0.0886,-5.47473 2.7144,-5.99259 3.99975,-0.78882 1.17056,4.73901 3.02719,4.06913 2.66741,-0.96241 -0.1987,-2.77874 0.11858,-3.75 1.225,-3.75 1.12571,0 1.34549,0.73823 0.89314,3 -0.53471,2.67354 -0.33611,3 1.825,3 1.33375,0 2.91421,-0.48921 3.51213,-1.08713 0.78285,-0.78285 1.2752,-0.78285 1.75902,0 1.23843,2.00383 2.59858,1.11355 1.99187,-1.30378 -0.33004,-1.31499 -0.11361,-2.69155 0.48095,-3.05901 0.59457,-0.36746 1.08103,-0.19156 1.08103,0.3909 0,0.58246 0.87344,1.05902 1.94098,1.05902 1.06754,0 2.20896,0.43359 2.53648,0.96353 0.77263,1.25014 -3.0137,5.03647 -5.03648,5.03647 -0.85746,0 -1.2809,0.45 -0.94098,1 1.09922,1.77857 5.09319,1.06194 7.32569,-1.31445 2.88878,-3.07497 2.76292,-5.49971 -0.32569,-6.27491 -3.11061,-0.78071 -3.25039,-3.19432 -0.25,-4.31697 2.64473,-0.98958 3.71241,0.18177 3.73469,4.09731 0.0239,4.20014 1.91806,4.37294 5.76507,0.52593 4.15163,-4.15163 3.93125,-7.05674 -0.49603,-6.53896 -2.4556,0.28718 -2.78766,-0.0298 -3.06709,-2.92795 -0.25857,-2.68172 -0.73509,-3.25 -2.72525,-3.25 -2.1758,0 -2.31643,0.25108 -1.43664,2.5651 1.26966,3.33947 1.27369,3.3257 -0.81271,2.7801 -1.01834,-0.2663 -2.9083,0.57073 -4.39068,1.94455 -1.94917,1.80643 -3.02941,2.17332 -4.30202,1.46113 -0.93462,-0.52304 -3.68382,-0.65338 -6.10933,-0.28966 l -4.41001,0.66133 v -4.06128 c 0,-3.48075 -0.30531,-4.06127 -2.13592,-4.06127 -1.94938,0 -2.08319,0.38475 -1.53211,4.40533 0.55699,4.0637 -0.20928,5.59467 -2.80021,5.59467 -0.16757,0 -0.61241,-2.05215 -0.98854,-4.56034 -0.59043,-3.93729 -0.97899,-4.51793 -2.84406,-4.25 -1.82226,0.26179 -2.16325,0.97512 -2.17968,4.55981 -0.0107,2.33721 0.43052,4.26339 0.98052,4.28041 0.55,0.017 0.17875,0.5085 -0.825,1.09219 -1.00375,0.58369 -2.09125,0.79501 -2.41667,0.46959 -0.32541,-0.32541 -0.0116,-0.59166 0.69745,-0.59166 0.90296,0 0.98675,-0.37444 0.27973,-1.25 -0.55516,-0.6875 -1.34282,-3.26906 -1.75035,-5.73679 -0.40753,-2.46773 -1.33729,-6.17696 -2.06614,-8.24273 -1.54875,-4.38963 -2.82641,-3.80843 13.83037,-6.29133 10.74165,-1.60117 33.43899,-7.00559 41.54324,-9.89177 5.13337,-1.82816 4.73814,-2.58024 6.21013,11.81725 1.22533,11.9849 0.90293,12.92651 -4.08438,11.92905 -1.4717,-0.29434 -2.98195,-0.0398 -3.35612,0.56558 -0.37416,0.60541 -1.80529,1.10074 -3.18029,1.10074 -1.74472,0 -2.26672,0.37746 -1.72783,1.2494 0.42469,0.68717 0.64233,2.48717 0.48365,4 -0.23181,2.20991 0.11943,2.7506 1.78684,2.7506 1.69272,0 2.07537,-0.62559 2.07537,-3.39301 0,-2.13505 0.57188,-3.61246 1.54248,-3.98492 1.27708,-0.49006 1.43,0.008 0.88871,2.89301 -0.62607,3.33725 -0.52932,3.48492 2.28321,3.48492 3.70754,0 7.77185,-4.03258 7.00805,-6.95335 -0.29476,-1.12718 -0.1279,-1.79723 0.37081,-1.48901 1.44511,0.89312 1.04986,5.0787 -0.60965,6.45597 -1.81034,1.50244 -1.31403,7.29346 1.65234,19.27959 1.06078,4.28626 1.66259,8.223757 1.33735,8.749997 -0.32523,0.52624 -2.25228,0.96007 -4.28232,0.96407 -5.42417,0.0107 -36.25636,6.46446 -46.80559,9.79732 l -9.11461,2.87963 z m 34.75659,-9.608267 c 4.419,-2.09695 6.63583,-6.25358 6.47358,-12.13813 l -0.13362,-4.84571 -0.66226,4.5 c -0.86262,5.86134 -2.46183,8.63388 -6.05049,10.48965 -4.10148,2.12095 -8.86001,1.8533 -13.44228,-0.7561 -5.34978,-3.04646 -5.71585,-4.73355 -1.02709,-4.73355 5.97291,0 11.24692,-2.06967 16.05197,-6.29924 2.46634,-2.17097 4.23502,-4.19645 3.93039,-4.50108 -0.30463,-0.30463 -1.78668,0.62669 -3.29344,2.06961 -4.61203,4.4166 -11.52027,6.89632 -18.53912,6.65463 -4.86441,-0.16751 -6.13188,0.087 -5.88222,1.18128 1.73544,7.60645 14.3418,12.285347 22.57458,8.37864 z m 27.23897,-1.29944 c -2.31805,-8.26147 -1.93245,-8.76682 0.90373,-1.1844 2.82779,7.559997 2.70009,6.999997 1.59627,6.999997 -0.47753,0 -1.60253,-2.617017 -2.5,-5.815597 z m -46.59998,-18.4344 c 0.0367,-1.44427 2.37103,-4.75 3.35412,-4.75 0.36599,0 -0.0327,1.35 -0.88592,3 -1.64604,3.1831 -2.52043,3.80306 -2.4682,1.75 z m 19.9682,-3.63197 c 0,-1.1 0.45,-2.27811 1,-2.61803 0.55,-0.33992 1,0.28197 1,1.38197 0,1.1 -0.45,2.27811 -1,2.61803 -0.55,0.33992 -1,-0.28197 -1,-1.38197 z m 16.03327,0.0662 c -0.0476,-1.88295 1.86399,-5.18426 3.00191,-5.18426 1.51744,0 1.13698,1.57177 -1.00191,4.13922 -1.12488,1.35026 -1.98097,1.79758 -2,1.04504 z m -61.28327,-10.07886 c -2.95375,-7.21939 -3.27036,-8.54503 -1.82792,-7.65355 0.99886,0.61732 5.51058,13.45093 4.93071,14.02542 -0.19404,0.19223 -1.59029,-2.67511 -3.10279,-6.37187 z m 52.25,-22.63227 c 9.17355,-3.66509 10,-3.88651 10,-2.67925 0,0.77726 -15.70581,6.26967 -17.55955,6.14068 -0.51725,-0.036 2.88455,-1.59364 7.55955,-3.46143 z"
       style="fill:#000000"
       id="path524" />
  </g>
</svg>
