<?xml version="1.0" encoding="UTF-8" standalone="no"?>
<!-- Created with Inkscape (http://www.inkscape.org/) -->

<svg
   version="1.1"
   id="svg438"
   width="65.000061"
   height="65"
   viewBox="0 0 65.000061 65"
   sodipodi:docname="cabecera_seccion_marcas-1500x200px.jpg"
   xmlns:inkscape="http://www.inkscape.org/namespaces/inkscape"
   xmlns:sodipodi="http://sodipodi.sourceforge.net/DTD/sodipodi-0.dtd"
   xmlns="http://www.w3.org/2000/svg"
   xmlns:svg="http://www.w3.org/2000/svg">
  <defs
     id="defs442" />
  <sodipodi:namedview
     id="namedview440"
     pagecolor="#ffffff"
     bordercolor="#666666"
     borderopacity="1.0"
     inkscape:showpageshadow="2"
     inkscape:pageopacity="0.0"
     inkscape:pagecheckerboard="0"
     inkscape:deskcolor="#d1d1d1"
     showgrid="false" />
  <g
     inkscape:groupmode="layer"
     inkscape:label="Image"
     id="g444"
     transform="translate(-98.48767,-52.55695)">
    <path
       d="m 98.48767,85.05695 v -32.5 h 32.50006 32.5 v 32.5 32.5 h -32.5 -32.50006 z m 14.81956,6.75 c 0.2149,-1.51338 -0.1943,-2.25 -1.25,-2.25 -1.9842,0 -2.0246,0.27771 0.9305,-6.40408 2.817,-6.36984 3.1161,-8.59592 1.1549,-8.59592 -3.2138,0 -8.65496,10.73203 -8.65496,17.07109 0,2.91254 0.16859,3.03569 3.75006,2.73928 3.0122,-0.24931 3.8128,-0.75304 4.0695,-2.56037 z m 10.9805,1.55 c 2.1257,-2.12572 1.3464,-3.8 -1.7687,-3.8 -3.8724,0 -3.0932,-2.53763 1.0326,-3.36279 3.3268,-0.66535 4.0916,-3.63721 0.9361,-3.63721 -1.1,0 -2,-0.36 -2,-0.8 0,-1.54865 2.4254,-3.2 4.7,-3.2 1.6333,0 2.3,-0.57971 2.3,-2 0,-2.88393 -6.188,-2.78798 -8.9142,0.13821 -3.9354,4.22414 -6.582,16.0914 -3.8358,17.19951 2.3501,0.94829 6.3487,0.6635 7.55,-0.53772 z m 12.3504,0.11951 c 2.2319,-1.19446 5.2525,-7.45853 4.3224,-8.96353 -0.8146,-1.31797 -5.201,-1.20484 -6.0419,0.15582 -0.3779,0.6115 -0.067,1.49522 0.691,1.96384 1.1379,0.70353 1.0743,1.15589 -0.3648,2.59534 -2.9135,2.91434 -4.015,0.44227 -2.1898,-4.91459 2.0033,-5.87933 4.2815,-8.05051 5.1126,-4.87242 0.6561,2.50881 3.0599,2.48292 4.6549,-0.0502 2.8122,-4.46593 -6.1839,-6.75229 -10.1128,-2.57017 -4.4176,4.7023 -6.6554,13.90298 -4.022,16.53635 1.492,1.49205 5.2794,1.54898 7.9504,0.11951 z m 14.3104,0.45716 c 3.8464,-1.47599 8.0103,-14.89921 5.5437,-17.87125 -1.2973,-1.56316 -4.6562,-1.96004 -7.4653,-0.88209 -3.3701,1.29324 -7.726,13.8415 -6.1923,17.83837 0.6039,1.57371 5.0815,2.07862 8.1139,0.91497 z m -4.0262,-5.97231 c 1.3803,-5.49935 3.4904,-9.40436 5.0818,-9.40436 1.6974,0 1.6674,0.23751 -1.0087,8 -1.5282,4.43254 -5.1462,5.68001 -4.0731,1.40436 z"
       style="fill:#000000"
       id="path575" />
  </g>
</svg>
