<?xml version="1.0" encoding="UTF-8" standalone="no"?>
<!-- Created with Inkscape (http://www.inkscape.org/) -->

<svg
   version="1.1"
   id="svg182"
   width="799.62067"
   height="401.09875"
   viewBox="0 0 799.62067 401.09875"
   sodipodi:docname="1194472_OSZEPG0.jpg"
   xmlns:inkscape="http://www.inkscape.org/namespaces/inkscape"
   xmlns:sodipodi="http://sodipodi.sourceforge.net/DTD/sodipodi-0.dtd"
   xmlns:xlink="http://www.w3.org/1999/xlink"
   xmlns="http://www.w3.org/2000/svg"
   xmlns:svg="http://www.w3.org/2000/svg">
  <defs
     id="defs186">
    <linearGradient
       inkscape:collect="always"
       id="linearGradient1004">
      <stop
         style="stop-color:#416ab5;stop-opacity:1;"
         offset="0"
         id="stop1000" />
      <stop
         style="stop-color:#b54178;stop-opacity:0.49803922;"
         offset="0.5"
         id="stop1008" />
      <stop
         style="stop-color:#416ab5;stop-opacity:0;"
         offset="1"
         id="stop1002" />
    </linearGradient>
    <linearGradient
       inkscape:collect="always"
       xlink:href="#linearGradient1004"
       id="linearGradient1006"
       x1="331.54987"
       y1="489.55957"
       x2="1131.1705"
       y2="489.55957"
       gradientUnits="userSpaceOnUse" />
  </defs>
  <sodipodi:namedview
     id="namedview184"
     pagecolor="#ffffff"
     bordercolor="#666666"
     borderopacity="1.0"
     inkscape:showpageshadow="2"
     inkscape:pageopacity="0.0"
     inkscape:pagecheckerboard="0"
     inkscape:deskcolor="#d1d1d1"
     showgrid="false" />
  <g
     inkscape:groupmode="layer"
     inkscape:label="Image"
     id="g188"
     transform="translate(-331.54988,-289.01018)">
    <path
       d="m 631.52396,688.67755 c -6.01585,-1.70078 -6.18659,-6.35593 -0.48321,-13.17438 4.09678,-4.8975 3.21626,-5.35315 -14.26723,-7.37872 -10.2484,-1.18737 -40.5826,-1.30698 -67.40931,-0.26546 -127.92631,4.96557 -192.30556,5.75414 -190.35046,2.33164 1.078,-1.88693 4.9303,-3.43094 8.5607,-3.43094 8.07569,0 11.61797,-5.01991 4.88339,-6.92057 -2.68587,-0.75796 0.54977,-1.53464 7.19036,-1.72578 9.19966,-0.26545 11.71501,-1.35944 10.56668,-4.59674 -1.75998,-4.96215 3.62636,-7.74349 14.99639,-7.74349 8.83535,0 10.99665,-4.7123 3.23725,-7.0583 -2.66722,-0.80636 -15.81668,-2.37255 -29.22106,-3.48028 -19.23082,-1.58961 -23.75641,-2.81632 -21.45513,-5.81627 1.60398,-2.09086 9.27715,-4.61675 17.05137,-5.61298 8.24938,-1.05715 20.6446,-5.81222 29.76854,-11.41989 14.46864,-8.89244 18.21462,-9.76719 50.27261,-11.73812 35.63975,-2.1911 102.53156,-14.23184 102.53156,-18.45601 0,-1.30667 -1.87051,-2.37599 -4.15669,-2.37599 -2.28618,0 -4.15668,-1.88909 -4.15668,-4.19793 0,-2.61396 5.49061,-5.54146 14.54839,-7.75692 25.03532,-6.12453 24.9064,-6.05895 21.28278,-10.78279 -5.19006,-6.76599 -17.50692,-5.11361 -24.22863,3.2501 -5.13205,6.38592 -8.3848,7.48834 -21.97594,7.4493 -8.77373,-0.0313 -17.82279,-1.3535 -20.10897,-2.95217 -3.04918,-2.13176 -1.06229,-2.91846 7.45705,-2.95218 6.38755,-0.0313 12.38444,-1.39505 13.32638,-3.04399 1.04676,-1.83226 -3.23317,-2.99808 -11.00794,-2.99808 -7.62025,0 -13.2534,1.50278 -14.04954,3.7476 -1.46827,4.14048 -59.44331,5.60235 -59.45522,1.49904 -0.0124,-3.82442 -21.92283,-2.48342 -39.37695,2.40972 -16.71732,4.68669 -31.91116,4.72604 -20.20877,0.0531 16.53445,-6.60359 15.76249,-7.72913 -4.15667,-6.06143 -11.4309,0.95719 -23.90095,2.42126 -27.71121,3.25354 l -6.92782,1.51309 6.35445,-6.04051 c 3.49493,-3.32257 12.01781,-6.95961 18.9398,-8.08264 7.34889,-1.19237 15.53852,-5.00302 19.68306,-9.15881 5.73124,-5.74633 10.08752,-7.10764 22.62705,-7.07078 8.54114,0.0313 17.39983,1.35381 19.686,2.95216 3.05404,2.13551 1.11651,2.91844 -7.30382,2.95218 -6.30328,0.0313 -15.03233,2.06149 -19.39786,4.52461 l -7.93736,4.4787 12.47007,-0.0313 c 20.27746,-0.0313 33.01588,-3.12613 31.41118,-7.65042 -1.05876,-2.98497 1.61971,-3.88345 10.60457,-3.55773 6.61163,0.24047 12.6999,1.49031 13.52948,2.77854 1.98842,3.08772 22.04623,-2.9628 22.04623,-6.65012 0,-3.88315 10.15661,-3.56646 23.55454,0.73453 l 11.08449,3.55835 -18.40517,2.14176 c -10.12286,1.17831 -21.29972,3.81819 -24.83743,5.86657 l -6.43227,3.72446 5.95707,2.38409 c 7.36071,2.94593 41.22187,2.68298 36.78219,-0.28419 -1.93787,-1.29574 1.29593,-4.09922 8.15297,-7.06733 13.07231,-5.65888 25.12452,-6.69135 14.71659,-1.26075 -3.42926,1.78949 -6.23503,4.55364 -6.23503,6.14291 0,1.63833 2.70003,1.95376 6.23503,0.72829 3.42927,-1.18861 10.27779,-2.84158 15.21897,-3.67293 4.94116,-0.83135 8.26547,-2.76917 7.38737,-4.30631 -0.8781,-1.53714 -3.97778,-1.97717 -6.88814,-0.97782 -3.88432,1.33384 -4.87797,0.65083 -3.73632,-2.56804 1.12568,-3.17359 -2.37335,-5.79661 -12.667,-9.49581 -7.82228,-2.81102 -13.82976,-5.39248 -13.35001,-5.73695 2.57745,-1.85038 29.74637,2.19953 28.57005,4.25884 -2.31894,4.05959 19.10877,6.51864 27.33083,3.13643 5.73872,-2.36036 7.45235,-4.85502 6.80347,-9.90336 -0.77023,-5.99241 0.21851,-6.67354 8.83159,-6.08143 l 9.69894,0.66677 -9.61176,-4.69013 c -15.28577,-7.45898 -53.13762,-15.37798 -104.0043,-21.75828 l -47.1091,-5.90903 -5.5776,7.17416 -5.57765,7.17386 -5.15483,-8.29783 -5.15486,-8.29813 -40.53331,1.12772 c -22.29334,0.62085 -45.52131,-0.11239 -51.61778,-1.62677 l -11.08449,-2.75543 10.32379,-5.4918 c 8.37725,-4.45652 10.03547,-6.73506 8.79448,-12.08446 -1.93489,-8.34061 0.6416,-9.06546 47.38866,-13.33211 19.81354,-1.80822 40.56735,-4.58987 46.11955,-6.18104 5.55222,-1.59117 12.41077,-2.07806 15.24117,-1.08213 3.71203,1.30636 4.12878,1.02154 1.49532,-1.02215 -2.75552,-2.13864 -1.54851,-3.77571 4.92137,-6.67511 4.71477,-2.11271 11.24781,-7.90682 14.51791,-12.87521 3.80524,-5.78162 14.25411,-13.24622 29.02493,-20.73487 12.69356,-6.43557 23.07923,-12.43175 23.07923,-13.32491 0,-0.89318 -2.70195,-3.9909 -6.00436,-6.88405 -11.27452,-9.87712 -0.32485,-21.3501 29.05734,-30.44554 10.08317,-3.12144 14.27879,-5.40903 10.2005,-5.56176 -5.51817,-0.20611 -6.08202,-0.85069 -2.77112,-3.16579 4.53079,-3.16764 2.50392,-3.90249 -8.63843,-3.13142 -5.36506,0.37132 -7.66993,-1.22359 -8.85518,-6.12733 -1.59917,-6.61608 -1.54415,-6.62546 28.0414,-4.79413 28.85536,1.78636 44.39349,-0.84195 31.38519,-5.30879 -15.60959,-5.36033 -2.22788,-7.63605 46.05019,-7.83188 28.57721,-0.11549 54.45258,-1.37005 57.50081,-2.78727 3.4194,-1.58961 -11.40262,-2.65737 -38.69677,-2.78729 -42.1431,-0.19986 -44.00795,-0.45875 -39.36232,-5.45682 3.94719,-4.24665 10.26653,-5.32347 33.15454,-5.6495 15.55279,-0.22174 34.11732,-1.36196 41.25452,-2.53433 13.29372,-2.18361 57.06413,3.83567 84.1507,11.57229 12.81287,3.65986 16.20352,3.38065 40.1813,-3.30757 21.77602,-6.07425 35.40739,-7.59015 80.91726,-8.99831 47.97674,-1.48468 54.72967,-1.12709 54.72967,2.89689 0,3.10647 3.83119,5.21199 11.85162,6.51304 14.6907,2.38347 21.45965,11.39364 14.66336,19.51845 -6.31237,7.54611 -5.44091,9.22035 4.79874,9.22035 14.41965,0 17.40785,5.85377 6.72175,13.16722 -8.41454,5.75882 -8.57317,6.1798 -2.7036,7.17697 9.0675,1.54088 7.6422,6.30846 -3.37486,11.28872 -11.01484,4.97932 -33.20501,5.95619 -30.57136,1.34601 2.82533,-4.94589 -18.39078,-3.03492 -30.48246,2.74606 l -11.08447,5.29912 8.31338,4.6108 c 4.5723,2.53556 12.35178,5.55113 17.28774,6.70133 9.97927,2.32477 14.92154,8.00208 8.86699,10.18569 -2.18672,0.78856 0.96937,3.16359 7.1299,5.36531 10.66058,3.81006 10.31462,3.89408 -9.73006,2.36287 -11.43083,-0.8735 -28.57723,-2.38129 -38.10297,-3.35067 -14.55535,-1.48125 -17.31952,-1.01435 -17.31952,2.92532 0,2.57835 2.18227,5.30474 4.84947,6.05894 3.0582,0.86444 2.10126,1.49935 -2.59071,1.71889 -17.01987,0.79543 -29.07251,12.33992 -12.88321,12.33992 4.03652,0 5.1895,1.36945 3.99312,4.74229 -0.92514,2.60834 -1.68204,6.61264 -1.68204,8.89869 0,2.28572 -3.42927,6.28972 -7.62059,8.89711 -7.07976,4.4047 -4.57215,4.57116 35.33183,2.34445 66.71084,-3.72262 124.42602,-3.03213 136.62142,1.63458 11.5237,4.40968 12.2304,9.65102 1.7293,12.82617 -5.3856,1.62802 -4.5112,2.09179 4.3978,2.33101 8.6425,0.23111 11.7297,1.77356 13.8555,6.91653 2.4159,5.84407 4.6789,6.56454 19.3623,6.16574 12.2494,-0.33229 14.8029,0.21549 9.699,2.07804 -3.8103,1.39129 -11.2925,2.83288 -16.6269,3.20358 -9.4982,0.6602 -9.4407,0.7236 2.7713,3.07459 6.8584,1.32042 18.601,2.50059 26.0947,2.62302 27.86,0.45439 9.6186,2.7904 -46.8783,6.00334 -63.151,3.59114 -123.8787,9.02549 -126.08165,11.28248 -2.86017,2.93032 9.01443,9.35277 20.83948,11.27123 6.75426,1.09586 13.12688,3.47404 14.16141,5.28506 1.29264,2.26293 -0.85437,2.70109 -6.8631,1.40098 -6.39336,-1.38349 -8.74431,-0.7923 -8.74431,2.19829 0,3.2601 -4.92095,3.77945 -24.24732,2.55773 l -24.24732,-1.53245 6.11916,6.36155 c 6.7465,7.01364 16.56221,8.01644 31.3093,3.1989 5.32433,-1.73952 11.70736,-3.65329 14.18457,-4.25291 2.47716,-0.59992 9.33581,-2.54213 15.24134,-4.3163 19.64324,-5.90091 31.04834,-4.23074 40.43074,5.91996 l 8.484,9.17882 -9.3898,8.7347 c -9.1542,8.5155 -9.2333,8.78314 -3.155,10.6585 3.4293,1.05807 6.2351,4.20668 6.2351,6.99709 0,2.7904 1.8307,7.69227 4.0686,10.89303 3.6813,5.26602 4.0768,5.32036 4.1567,0.57307 0.1039,-6.16762 3.1402,-6.73694 7.9957,-1.49904 1.9108,2.06118 7.3439,3.74761 12.074,3.74761 4.7299,0 9.0294,1.34913 9.5545,2.99808 0.5883,1.84757 -5.119,2.5899 -14.8709,1.9347 -14.2679,-0.95876 -15.4621,-0.58962 -12.1349,3.74761 2.0298,2.64611 6.4462,4.81099 9.8142,4.81099 5.754,0 6.0474,1.04058 4.8592,17.23897 -1.468,20.01159 -2.5101,22.13804 -7.3442,14.98573 -8.0435,-11.90114 -14.6689,-1.52028 -9.6112,15.05944 4.2495,13.93109 1.3384,15.56256 -27.9595,15.6706 -12.95509,0.0469 -26.67213,0.9772 -30.48249,2.06493 -6.22031,1.77607 -6.5393,1.46563 -3.12451,-3.03898 3.42283,-4.51525 2.85229,-5.01711 -5.70434,-5.01711 -15.08173,0 -157.75109,11.8037 -199.74633,16.526 -20.98316,2.35943 -41.89663,3.47933 -46.47445,2.48902 -6.518,-1.41065 -11.85724,0.55871 -24.61682,9.07952 -17.99894,12.01951 -33.70177,14.29679 -42.07202,6.10142 -4.49661,-4.40281 -5.16694,-4.28477 -8.50539,1.49904 -3.6389,6.30377 -5.11004,6.74443 -14.06819,4.21167 z M 917.64245,515.53328 c 0,-0.72736 -1.24701,-2.15613 -2.77111,-3.17516 -1.52413,-1.01904 -2.77114,-0.42411 -2.77114,1.32228 0,1.74607 1.24701,3.17484 2.77114,3.17484 1.5241,0 2.77111,-0.59493 2.77111,-1.32196 z M 665.47021,477.88016 c 3.25118,-2.27292 2.53221,-2.91626 -3.30034,-2.95218 -4.10138,-0.0313 -8.22774,1.30324 -9.16971,2.95218 -2.18687,3.82818 6.99469,3.82818 12.47005,0 z m 65.12141,-23.82759 c 8.12095,-3.98682 7.73611,-4.1745 -16.62674,-8.10106 -33.11943,-5.33816 -37.984,-7.28128 -12.47007,-4.9815 28.9701,2.61145 35.86632,2.30384 39.63019,-1.76856 5.09085,-5.50774 -2.69525,-9.19163 -19.53954,-9.24471 -8.00161,-0.0313 -14.54838,-1.31511 -14.54838,-2.86599 0,-1.55119 -3.42928,-0.88506 -7.6206,1.4803 -4.19132,2.36569 -15.10261,4.40407 -24.24733,4.53024 -15.89264,0.21861 -32.95668,4.57925 -23.55455,6.01864 2.28618,0.35009 -3.94884,1.56556 -13.85561,2.70109 -9.90677,1.13552 -20.68667,3.01339 -23.95534,4.17326 -3.79265,1.34572 -7.43325,0.49626 -10.06156,-2.34724 -3.24242,-3.50807 -6.23067,-3.82474 -14.04749,-1.48968 -10.92824,3.26449 -15.27923,7.94056 -9.58729,10.30373 7.10255,2.94875 73.30783,6.78629 107.5319,6.23289 22.26185,-0.36008 37.60957,-2.01839 42.95241,-4.64141 z m -330.40373,-2.12363 c -1.87613,-0.82104 -5.61716,-0.87101 -8.31338,-0.1124 -2.6962,0.76014 -1.16118,1.43221 3.41117,1.4931 4.57235,0.0625 6.77835,-0.56058 4.90221,-1.38192 z m 360.52201,-2.39378 c -3.13372,-2.37475 -8.38652,-3.55679 -11.67292,-2.62708 -9.47585,2.68111 -6.95412,5.4256 5.71194,6.21665 10.86361,0.67832 11.27004,0.43379 5.96098,-3.58957 z m -206.08462,-4.63392 c 0,-1.64894 -2.56761,-2.99808 -5.7058,-2.99808 -3.13818,0 -4.93508,1.34914 -3.99314,2.99808 0.94197,1.64895 3.50959,2.99808 5.70581,2.99808 2.19623,0 3.99313,-1.34913 3.99313,-2.99808 z m 20.85845,-0.13112 c 2.80357,-4.9078 -3.84964,-11.40771 -9.91904,-9.69036 -6.50475,1.84038 -9.15221,5.67387 -6.78272,9.82184 2.2585,3.95342 14.42288,3.85785 16.70176,-0.13113 z m 272.88064,-1.36787 c 6.63262,-4.10207 6.27837,-4.28351 -8.31338,-4.26009 -8.38264,0.0313 -22.72322,1.85132 -31.86791,4.08363 l -16.62674,4.05928 24.94011,0.19988 c 16.84066,0.13422 27.18994,-1.1905 31.86792,-4.08365 z M 556.70492,432.15939 c -1.43346,-4.65765 -9.18179,-6.46275 -15.40432,-3.58834 -3.93506,1.81759 -3.57541,2.53214 2.24018,4.45184 10.60453,3.49996 14.42979,3.24917 13.16414,-0.8635 z m 125.39205,-8.4215 c 0,-1.55181 -1.87051,-2.82131 -4.1567,-2.82131 -4.28527,0 -5.50538,3.53773 -2.3846,6.91402 2.21392,2.39533 6.5413,-0.31231 6.5413,-4.09271 z m 155.10267,-8.70037 c 5.75577,-3.93811 2.81324,-5.86375 -6.12251,-4.0065 -4.17356,0.86726 -6.90571,2.77197 -6.07149,4.23229 1.94839,3.41063 7.01637,3.31694 12.194,-0.22485 z m 55.5027,-21.1037 c 0,-1.64895 -3.11751,-2.99808 -6.92781,-2.99808 -3.8103,0 -6.92782,1.34913 -6.92782,2.99808 0,1.64895 3.11752,2.99808 6.92782,2.99808 3.8103,0 6.92781,-1.34913 6.92781,-2.99808 z m -92.83264,-8.99424 c 0.94196,-1.64895 -0.2315,-2.99808 -2.60756,-2.99808 -2.37612,0 -4.32024,1.34913 -4.32024,2.99808 0,1.64894 1.17339,2.99808 2.60756,2.99808 1.43418,0 3.37829,-1.34914 4.32024,-2.99808 z m -160.48245,-31.47988 6.42046,-7.4952 h -6.79549 c -3.73751,0 -6.79549,1.34913 -6.79549,2.99808 0,1.64894 -1.8705,2.99808 -4.15668,2.99808 -4.32731,0 -5.49782,3.54585 -2.30926,6.99552 3.34869,3.623 7.13035,2.09867 13.63646,-5.49648 z m 195.86702,-0.46752 c -1.87613,-0.82104 -5.61716,-0.871 -8.31338,-0.1093 -2.6962,0.76013 -1.16117,1.4319 3.41117,1.49311 4.57235,0.0624 6.77835,-0.56089 4.90221,-1.38225 z m -21.67818,-6.73444 c 4.32844,-1.83258 2.85535,-2.97465 -7.46212,-5.78537 -15.50784,-4.2248 -28.88962,-4.52117 -31.07914,-0.68831 -4.19981,7.35219 24.91602,12.24249 38.54126,6.47368 z M 634.94543,327.64245 c 0.0448,-1.92814 -5.24475,-1.40347 -23.51211,2.33164 l -11.08451,2.26667 15.24119,1.61522 c 13.70595,1.45251 19.2189,-0.3173 19.35543,-6.21353 z m 109.50181,-11.47297 c 4.72594,-2.03871 3.90965,-2.88817 -5.54224,-5.76851 -6.09648,-1.85787 -14.04296,-3.38564 -17.65881,-3.3947 -5.40846,0 -5.98708,0.7489 -3.2627,4.30037 2.93008,3.81975 9.70687,6.45432 18.15038,7.05612 1.52411,0.1093 5.26513,-0.87819 8.31337,-2.19328 z M 449.32259,588.38167 c 9.43986,-4.14985 45.47137,-6.95243 51.73324,-4.02367 7.42922,3.47466 -11.99146,7.10795 -37.87763,7.0864 -16.781,0 -19.44929,-0.60368 -13.85561,-3.06273 z m -59.57915,-5.56863 c 0.94195,-1.64895 6.07715,-2.99808 11.41157,-2.99808 5.76029,0 9.00346,1.21767 7.98629,2.99808 -0.94196,1.64895 -6.07716,2.9981 -11.41158,2.9981 -5.76028,0 -9.00345,-1.21736 -7.98628,-2.9981 z m 38.10295,-8.06266 c 2.6672,-0.7542 7.03172,-0.7542 9.69892,0 2.66722,0.7539 0.48495,1.371 -4.84947,1.371 -5.3344,0 -7.51667,-0.6171 -4.84945,-1.371 z m 42.25963,-0.93158 c 12.29513,-3.38471 18.56032,-3.38471 16.62673,0 -0.94194,1.64894 -6.93883,2.8385 -13.32639,2.64331 -10.96986,-0.33479 -11.1528,-0.48156 -3.30034,-2.64331 z m 5.54224,-41.97314 c -1.01859,-1.78292 -4.39723,-2.36786 -7.50804,-1.29979 -3.77142,1.2951 -5.02424,0.83633 -3.75991,-1.37694 1.04286,-1.82571 8.99281,-3.27822 17.66654,-3.22824 10.09334,0.0593 14.27407,1.00717 11.61371,2.63549 -8.18537,5.01023 -16.18814,6.46275 -18.0123,3.26948 z m 98.15186,-12.27372 c 4.4397,-1.92003 7.66946,-1.85569 9.56038,0.19051 1.96005,2.12052 -0.14262,3.02994 -6.70478,2.89939 -8.98318,-0.17801 -9.15559,-0.36508 -2.8556,-3.08958 z M 451.35475,507.48905 c 1.87976,-2.04902 4.11577,-2.96998 4.96896,-2.04714 0.85323,0.92316 -0.68475,2.59959 -3.41771,3.72544 -3.9494,1.62708 -4.26767,1.28261 -1.55125,-1.6783 z"
       style="fill:url(#linearGradient1006);fill-opacity:1;stroke-width:2.88236"
       id="path408" />
  </g>
</svg>
