<svg width="487" height="400" viewBox="0 0 487 400" fill="none" xmlns="http://www.w3.org/2000/svg">
<g clip-path="url(#clip0_19_67)">
<path d="M443.68 320.463L404.147 268.273C404.147 268.273 464.017 286.849 457.222 320.463H443.68Z" fill="#E5E5E5"/>
<path d="M33.8892 320.81L32.3884 320.783C32.9689 305.953 34.7493 291.178 37.7159 276.574C44.2055 245.308 54.9967 224.774 69.7897 215.542L70.6515 216.634C36.0949 238.198 33.9068 319.986 33.8892 320.81Z" fill="#E5E5E5"/>
<path d="M52.6488 320.49L51.1481 320.464C51.1803 318.987 52.1183 284.174 67.5386 274.551L68.4003 275.643C53.6022 284.877 52.6562 320.135 52.6488 320.49Z" fill="#E5E5E5"/>
<path d="M79.1893 216.755C83.3336 216.755 86.6931 213.769 86.6931 210.085C86.6931 206.402 83.3336 203.416 79.1893 203.416C75.045 203.416 71.6854 206.402 71.6854 210.085C71.6854 213.769 75.045 216.755 79.1893 216.755Z" fill="#6C63FF"/>
<path d="M75.4732 274.111C79.6175 274.111 82.9771 271.125 82.9771 267.442C82.9771 263.758 79.6175 260.772 75.4732 260.772C71.3289 260.772 67.9694 263.758 67.9694 267.442C67.9694 271.125 71.3289 274.111 75.4732 274.111Z" fill="#6C63FF"/>
<path d="M49.1511 220.753C50.5613 228.759 46.8858 235.919 46.8858 235.919C46.8858 235.919 40.9237 230.1 39.5135 222.094C38.1033 214.088 41.7788 206.927 41.7788 206.927C41.7788 206.927 47.7409 212.747 49.1511 220.753Z" fill="#E5E5E5"/>
<path d="M73.6791 240.196C65.0549 242.826 56.4812 240.856 56.4812 240.856C56.4812 240.856 61.8899 234.625 70.5141 231.995C79.1382 229.366 87.712 231.335 87.712 231.335C87.712 231.335 82.3032 237.567 73.6791 240.196Z" fill="#E5E5E5"/>
<path d="M73.9561 290.991C70.0528 292.081 65.8961 292.24 61.9017 291.454C64.438 288.584 67.8538 286.427 71.7376 285.243C75.6215 284.059 79.8077 283.898 83.792 284.78C81.1818 287.58 77.79 289.722 73.9561 290.991Z" fill="#E5E5E5"/>
<path d="M486.25 321.797H0.750385C0.551371 321.797 0.360518 321.727 0.219794 321.602C0.0790691 321.477 0 321.307 0 321.13C0 320.953 0.0790691 320.784 0.219794 320.659C0.360518 320.534 0.551371 320.463 0.750385 320.463H486.25C486.449 320.463 486.639 320.534 486.78 320.659C486.921 320.784 487 320.953 487 321.13C487 321.307 486.921 321.477 486.78 321.602C486.639 321.727 486.449 321.797 486.25 321.797Z" fill="#CBCBCB"/>
<path d="M307.502 352.543L301.363 366.744L236.812 352.456L245.872 331.497L307.502 352.543Z" fill="#FFB7B7"/>
<path d="M324.556 354.21L304.761 400L304.109 399.778C298.791 397.961 294.503 394.342 292.187 389.715C289.871 385.089 289.717 379.834 291.76 375.107L291.761 375.106L303.851 347.139L324.556 354.21Z" fill="#2F2E41"/>
<path d="M209.414 174.731L181.283 177.072L179.887 251.464C180.26 255.11 182.225 258.481 185.36 260.855C188.495 263.229 192.552 264.418 196.661 264.166L214.496 263.074L209.414 174.731Z" fill="#E5E5E5"/>
<path d="M308.586 171.07L289.338 170.85L288.198 259.242C292.452 259.369 296.689 258.714 300.645 257.321C304.601 255.927 308.192 253.824 311.193 251.142C314.194 248.46 316.542 245.258 318.089 241.734C319.636 238.21 320.349 234.441 320.185 230.662L308.586 171.07Z" fill="#E5E5E5"/>
<path d="M196.902 290.644C196.446 293.208 195.784 295.74 194.922 298.22C193.95 300.647 192.451 302.892 191.563 305.345C188.732 313.162 192.656 321.878 198.924 327.912C204.359 333.124 211.375 336.827 219.125 338.574C224.78 339.838 230.659 340.019 236.486 340.195C252.621 340.681 269.171 341.116 284.461 336.508C289.291 335.016 293.957 333.132 298.399 330.88C299.801 330.286 301.037 329.421 302.015 328.349C303.181 326.873 303.331 324.96 303.321 323.157C303.286 317.077 301.899 311.029 302.229 304.956C302.411 301.592 303.119 298.232 302.771 294.878C302.288 291.07 300.493 287.487 297.632 284.621C294.77 281.754 290.981 279.743 286.785 278.864C282.447 278.036 277.949 278.487 273.533 278.865C262.071 279.843 250.56 280.301 239.046 280.235C227.281 280.168 215.588 278.572 203.882 278.405C200.42 278.356 200.49 279.305 199.388 282.283C198.373 285.023 197.543 287.816 196.902 290.644Z" fill="#2F2E41"/>
<path d="M150.896 285.703C147.733 284.997 144.473 284.689 141.213 284.788C137.788 284.957 134.442 285.771 131.398 287.178C128.354 288.584 125.682 290.551 123.56 292.946C121.437 295.341 119.913 298.111 119.088 301.07C118.263 304.03 118.156 307.112 118.775 310.111C119.565 313.36 120.856 316.496 122.612 319.43C125.18 324.062 128.26 328.684 133.014 331.652C135.795 333.388 139.014 334.471 142.195 335.536L167.234 343.92C170.918 345.153 174.602 346.386 178.322 347.53C197.011 353.272 216.496 356.714 236.234 357.763C242.247 358.081 248.35 358.17 254.216 356.953C255.608 356.664 257.092 356.234 257.898 355.185C258.375 354.446 258.657 353.62 258.721 352.769L260.262 343.182C260.479 341.833 260.687 340.412 260.131 339.141C259.425 337.53 257.656 336.516 255.969 335.655C239.507 327.252 220.286 322.616 206.43 311.082C203.168 308.367 200.439 304.064 196.475 302.219C191.981 300.128 186.688 298.934 182.043 297.007C171.888 292.794 161.903 287.952 150.896 285.703Z" fill="#2F2E41"/>
<path opacity="0.1" d="M175.895 298.628C184.745 301.093 222.111 318.169 228.516 324.131C227.658 324.406 198.53 309.898 197.656 309.665C189.711 307.546 181.722 305.412 174.177 302.311C172.66 301.687 164.317 298.755 164.695 297.052C165.121 295.132 174.324 298.19 175.895 298.628Z" fill="black"/>
<path d="M229.308 149.728L205.479 165.809C205.479 165.809 180.334 166.508 181.184 180.794C182.033 195.08 192.097 262.718 192.097 262.718L194.28 285.991L235.696 296.48C258.074 302.147 281.716 302.597 304.346 297.788L299.424 274.44C299.424 274.44 319.354 168.402 307.348 163.734C295.342 159.065 287.838 160.399 287.838 160.399L272.789 148.727L229.308 149.728Z" fill="#E5E5E5"/>
<path d="M299.844 123.753C299.844 144.629 278.126 141.471 251.335 141.471C224.544 141.471 202.826 144.629 202.826 123.753C202.826 102.877 213.434 65.8735 251.335 65.8735C290.541 65.8735 299.844 102.877 299.844 123.753Z" fill="#2F2E41"/>
<path d="M276.551 130.828C289.298 119.498 289.298 101.129 276.551 89.7988C263.803 78.469 243.136 78.469 230.388 89.7988C217.641 101.129 217.641 119.498 230.388 130.828C243.136 142.158 263.803 142.158 276.551 130.828Z" fill="#FFB7B7"/>
<path d="M213.458 109.579H226.368L232.064 95.404L233.203 109.579H239.374L242.696 101.31L243.361 109.579H289.212C289.212 101.433 285.571 93.6217 279.091 87.8622C272.611 82.1026 263.822 78.8669 254.657 78.8669H248.012C238.848 78.8669 230.059 82.1026 223.578 87.8622C217.098 93.6217 213.458 101.433 213.458 109.579Z" fill="#2F2E41"/>
<path d="M284.086 153.062H218.802V223.091H284.086V153.062Z" fill="#6C63FF"/>
<path d="M222.4 351.876L228.54 366.077L293.091 351.789L284.03 330.83L222.4 351.876Z" fill="#FFB7B7"/>
<path d="M226.051 346.472L238.141 374.439L238.142 374.44C240.184 379.167 240.031 384.422 237.715 389.048C235.399 393.675 231.111 397.294 225.792 399.111L225.141 399.333L205.346 353.543L226.051 346.472Z" fill="#2F2E41"/>
<path d="M351.431 280.267C356.617 279.112 361.993 278.785 367.307 279.303C371.552 279.719 375.924 280.769 379.023 283.379C382.795 286.557 384.007 291.472 384.108 296.09C384.274 305.289 380.841 314.253 374.396 321.452C372.823 323.273 370.951 324.874 368.844 326.202C366.571 327.466 364.149 328.504 361.62 329.296L305.546 348.954C290.794 354.126 275.99 359.312 260.603 362.722C259.766 363.08 258.803 363.129 257.926 362.857C257.049 362.585 256.329 362.015 255.926 361.271C255.913 361.249 255.901 361.226 255.889 361.203C250.976 354.965 246.855 348.264 243.599 341.221C243.445 341.054 243.339 340.856 243.289 340.644C243.239 340.433 243.247 340.213 243.313 340.005C243.379 339.797 243.5 339.606 243.666 339.448C243.833 339.29 244.039 339.17 244.269 339.098L283.931 318.844C286.772 317.393 289.645 315.922 292.004 313.901C293.718 312.424 295.121 310.687 296.148 308.772C296.97 307.246 297.047 303.644 298.097 302.516C299.125 301.412 302.643 301.324 304.267 300.889C306.558 300.265 308.802 299.512 310.984 298.632C319.856 295.105 327.756 289.979 336.261 285.849C341.032 283.425 346.129 281.549 351.431 280.267Z" fill="#2F2E41"/>
<path opacity="0.1" d="M328.947 295.393C322.132 299.942 313.309 304.123 306.556 308.792C304.251 310.385 265.828 329.584 265.285 332.134C271.585 333.078 311.721 308.123 317.463 305.633C323.206 303.142 328.296 299.631 333.34 296.145C334.626 295.257 340.073 292.586 336.383 291.594C334.305 291.035 330.481 294.484 328.947 295.393Z" fill="black"/>
<path d="M451.422 119.858C464.372 119.858 474.87 110.528 474.87 99.018C474.87 87.5083 464.372 78.1777 451.422 78.1777C438.472 78.1777 427.974 87.5083 427.974 99.018C427.974 110.528 438.472 119.858 451.422 119.858Z" fill="#F1F1F1"/>
<path d="M408.026 123.591C417.11 123.591 424.474 117.046 424.474 108.972C424.474 100.898 417.11 94.3523 408.026 94.3523C398.941 94.3523 391.577 100.898 391.577 108.972C391.577 117.046 398.941 123.591 408.026 123.591Z" fill="#F1F1F1"/>
<path d="M106.715 114.054C113.999 114.054 119.904 108.806 119.904 102.332C119.904 95.8584 113.999 90.6102 106.715 90.6102C99.4308 90.6102 93.526 95.8584 93.526 102.332C93.526 108.806 99.4308 114.054 106.715 114.054Z" fill="#F1F1F1"/>
<path d="M128.429 121.937C133.538 121.937 137.681 118.255 137.681 113.714C137.681 109.172 133.538 105.491 128.429 105.491C123.319 105.491 119.177 109.172 119.177 113.714C119.177 118.255 123.319 121.937 128.429 121.937Z" fill="#F1F1F1"/>
<path d="M256.372 17.9209C261.94 17.9209 266.453 13.9092 266.453 8.96045C266.453 4.01173 261.94 0 256.372 0C250.804 0 246.29 4.01173 246.29 8.96045C246.29 13.9092 250.804 17.9209 256.372 17.9209Z" fill="#F1F1F1"/>
<path opacity="0.17" d="M196.291 197.747L197.192 191.565C197.192 191.565 230.808 193.746 225.556 201.082C220.303 208.418 207.546 209.085 207.546 209.085L196.291 197.747Z" fill="#2F2E41"/>
<path d="M221.666 170.865C223.591 171.053 225.446 171.618 227.097 172.519C228.748 173.42 230.154 174.635 231.214 176.076C232.18 177.391 232.837 178.866 233.146 180.412C233.455 181.959 233.408 183.544 233.01 185.074C232.612 186.605 231.87 188.047 230.828 189.316C229.787 190.585 228.468 191.653 226.95 192.458C226.393 192.75 225.812 193.004 225.212 193.217L204.549 249.391C203.951 250.499 203.111 251.492 202.08 252.311C201.048 253.13 199.845 253.76 198.538 254.164C197.232 254.569 195.848 254.739 194.467 254.667C193.086 254.594 191.735 254.28 190.491 253.742C189.247 253.204 188.135 252.452 187.219 251.531C186.303 250.61 185.601 249.536 185.154 248.373C184.706 247.21 184.521 245.979 184.61 244.752C184.699 243.525 185.061 242.326 185.673 241.223L207.647 185.673C207.049 183.835 206.969 181.894 207.415 180.022C207.862 178.15 208.82 176.405 210.207 174.941C211.593 173.477 213.363 172.339 215.362 171.628C217.361 170.917 219.526 170.655 221.666 170.865Z" fill="#FFB7B7"/>
<path d="M196.599 192.092C196.599 192.092 208.439 210.07 225.556 201.082L208.967 257.504H194.991L180.533 255.104L184.581 231.793L196.599 192.092Z" fill="#E5E5E5"/>
<path d="M281.137 204.38L271.329 192.412C271.329 192.412 276.043 179.998 294.322 184.538C294.322 184.538 305.953 207.678 281.137 204.38Z" fill="#E5E5E5"/>
<path opacity="0.17" d="M281.137 204.38L271.329 192.412C271.329 192.412 276.043 179.998 294.322 184.538C294.322 184.538 305.953 207.678 281.137 204.38Z" fill="#2F2E41"/>
<path d="M283.734 162.566C286.564 163.735 288.827 165.768 290.113 168.295C291.398 170.822 291.62 173.675 290.739 176.336L312.713 231.886C313.325 232.989 313.686 234.188 313.776 235.415C313.865 236.642 313.68 237.873 313.233 239.036C312.785 240.2 312.083 241.273 311.167 242.194C310.251 243.116 309.139 243.867 307.895 244.405C306.651 244.944 305.3 245.258 303.919 245.33C302.538 245.403 301.154 245.232 299.848 244.828C298.541 244.423 297.338 243.793 296.306 242.974C295.274 242.155 294.435 241.162 293.836 240.054L273.174 183.88C272.573 183.667 271.992 183.413 271.436 183.121C269.918 182.316 268.599 181.248 267.558 179.979C266.516 178.71 265.774 177.267 265.376 175.737C264.977 174.207 264.931 172.621 265.24 171.075C265.548 169.529 266.206 168.054 267.172 166.739C268.232 165.298 269.638 164.083 271.289 163.182C272.94 162.281 274.794 161.716 276.72 161.528C279.121 161.286 281.551 161.645 283.734 162.566Z" fill="#FFB7B7"/>
<path d="M271.329 192.412C271.329 192.412 287.512 201.139 294.322 184.538L317.125 237.902L310.349 248.434L309.369 248.507C305.327 248.807 301.263 248.229 297.527 246.825C293.791 245.421 290.495 243.232 287.92 240.446C282.67 234.764 279.095 228.007 277.52 220.788L271.329 192.412Z" fill="#E5E5E5"/>
</g>
<defs>
<clipPath id="clip0_19_67">
<rect width="487" height="400" fill="white"/>
</clipPath>
</defs>
</svg>
