<?xml version="1.0" encoding="UTF-8" standalone="no"?>
<!-- Created with Inkscape (http://www.inkscape.org/) -->

<svg
   version="1.1"
   id="svg2214"
   width="50px"
   height="50px"
   viewBox="0 0 40.174042 41.515644"
   sodipodi:docname="1000_F_270144452_SQIlWLuerDdOAIHXTGw7JdHkmaaW75ZP.jpg"
   xmlns:inkscape="http://www.inkscape.org/namespaces/inkscape"
   xmlns:sodipodi="http://sodipodi.sourceforge.net/DTD/sodipodi-0.dtd"
   xmlns="http://www.w3.org/2000/svg"
   xmlns:svg="http://www.w3.org/2000/svg">
  <defs
     id="defs2218" />
  <sodipodi:namedview
     id="namedview2216"
     pagecolor="#ffff00"
     bordercolor="#666666"
     borderopacity="1.0"
     inkscape:showpageshadow="2"
     inkscape:pageopacity="0.0"
     inkscape:pagecheckerboard="0"
     inkscape:deskcolor="#d1d1d1"
     showgrid="false" />
  <g
     inkscape:groupmode="layer"
     inkscape:label="Image"
     id="g2220"
     transform="translate(-14.319758,-11.954041)">
    <path
       d="M 39.942849,52.992098 C 33.666309,51.653743 28.854165,49.171823 24.184168,44.864377 18.216273,39.359794 15.027191,32.773218 14.417852,24.693502 c -0.331174,-4.391333 0.09498,-5.774591 2.541097,-8.248204 3.652698,-3.69376 8.117843,-5.507431 9.619252,-3.907188 0.901859,0.961224 4.191326,8.113155 4.197455,9.126069 0.008,1.319087 -1.081323,2.452759 -3.91946,4.079109 l -2.510832,1.438793 0.701876,1.579379 c 1.628158,3.663729 7.089292,9.891213 11.299379,12.885009 l 2.152297,1.530495 0.89704,-1.159584 c 3.465224,-4.479433 4.462375,-4.660595 10.037552,-1.823621 4.194212,2.134259 5.060293,2.870739 5.060293,4.303079 0,1.074629 -2.289034,4.249411 -4.53527,6.290201 -2.969292,2.697714 -5.29942,3.210715 -10.015682,2.205059 z"
       style="fill:white;stroke-width:0.352859"
       id="path2351" />
  </g>
</svg>
