<?xml version="1.0" standalone="no"?>
<svg preserveAspectRatio="none" xmlns:xlink="http://www.w3.org/1999/xlink" id="wave" style="transform:rotate(0deg); transition: 0.3s" viewBox="0 0 1440 420" version="1.1" xmlns="http://www.w3.org/2000/svg"><defs><linearGradient id="sw-gradient-0" x1="0" x2="0" y1="1" y2="0"><stop stop-color="rgba(0, 0, 0, 1)" offset="0%"/><stop stop-color="rgba(255, 75.672, 230.955, 1)" offset="100%"/></linearGradient></defs><path style="transform:translate(0, 0px); opacity:1" fill="url(#sw-gradient-0)" d="M0,168L40,147C80,126,160,84,240,105C320,126,400,210,480,266C560,322,640,350,720,308C800,266,880,154,960,126C1040,98,1120,154,1200,161C1280,168,1360,126,1440,140C1520,154,1600,224,1680,273C1760,322,1840,350,1920,336C2000,322,2080,266,2160,210C2240,154,2320,98,2400,112C2480,126,2560,210,2640,266C2720,322,2800,350,2880,364C2960,378,3040,378,3120,364C3200,350,3280,322,3360,273C3440,224,3520,154,3600,147C3680,140,3760,196,3840,203C3920,210,4000,168,4080,182C4160,196,4240,266,4320,287C4400,308,4480,280,4560,252C4640,224,4720,196,4800,217C4880,238,4960,308,5040,308C5120,308,5200,238,5280,175C5360,112,5440,56,5520,77C5600,98,5680,196,5720,245L5760,294L5760,420L5720,420C5680,420,5600,420,5520,420C5440,420,5360,420,5280,420C5200,420,5120,420,5040,420C4960,420,4880,420,4800,420C4720,420,4640,420,4560,420C4480,420,4400,420,4320,420C4240,420,4160,420,4080,420C4000,420,3920,420,3840,420C3760,420,3680,420,3600,420C3520,420,3440,420,3360,420C3280,420,3200,420,3120,420C3040,420,2960,420,2880,420C2800,420,2720,420,2640,420C2560,420,2480,420,2400,420C2320,420,2240,420,2160,420C2080,420,2000,420,1920,420C1840,420,1760,420,1680,420C1600,420,1520,420,1440,420C1360,420,1280,420,1200,420C1120,420,1040,420,960,420C880,420,800,420,720,420C640,420,560,420,480,420C400,420,320,420,240,420C160,420,80,420,40,420L0,420Z"/><defs><linearGradient id="sw-gradient-1" x1="0" x2="0" y1="1" y2="0"><stop stop-color="rgba(0, 0, 0, 1)" offset="0%"/><stop stop-color="rgba(163.203, 75.575, 232.552, 1)" offset="100%"/></linearGradient></defs><path style="transform:translate(0, 50px); opacity:0.9" fill="url(#sw-gradient-1)" d="M0,210L40,196C80,182,160,154,240,126C320,98,400,70,480,70C560,70,640,98,720,154C800,210,880,294,960,287C1040,280,1120,182,1200,126C1280,70,1360,56,1440,56C1520,56,1600,70,1680,105C1760,140,1840,196,1920,196C2000,196,2080,140,2160,140C2240,140,2320,196,2400,182C2480,168,2560,84,2640,70C2720,56,2800,112,2880,161C2960,210,3040,252,3120,287C3200,322,3280,350,3360,350C3440,350,3520,322,3600,280C3680,238,3760,182,3840,161C3920,140,4000,154,4080,168C4160,182,4240,196,4320,231C4400,266,4480,322,4560,343C4640,364,4720,350,4800,315C4880,280,4960,224,5040,168C5120,112,5200,56,5280,91C5360,126,5440,252,5520,280C5600,308,5680,238,5720,203L5760,168L5760,420L5720,420C5680,420,5600,420,5520,420C5440,420,5360,420,5280,420C5200,420,5120,420,5040,420C4960,420,4880,420,4800,420C4720,420,4640,420,4560,420C4480,420,4400,420,4320,420C4240,420,4160,420,4080,420C4000,420,3920,420,3840,420C3760,420,3680,420,3600,420C3520,420,3440,420,3360,420C3280,420,3200,420,3120,420C3040,420,2960,420,2880,420C2800,420,2720,420,2640,420C2560,420,2480,420,2400,420C2320,420,2240,420,2160,420C2080,420,2000,420,1920,420C1840,420,1760,420,1680,420C1600,420,1520,420,1440,420C1360,420,1280,420,1200,420C1120,420,1040,420,960,420C880,420,800,420,720,420C640,420,560,420,480,420C400,420,320,420,240,420C160,420,80,420,40,420L0,420Z"/></svg>