<?xml version="1.0" standalone="no"?>
<svg preserveAspectRatio="none"  xmlns:xlink="http://www.w3.org/1999/xlink" id="wave" style="transform:rotate(0deg); transition: 0.3s" viewBox="0 0 1440 200" version="1.1" xmlns="http://www.w3.org/2000/svg"><defs><linearGradient id="sw-gradient-0" x1="0" x2="0" y1="1" y2="0"><stop stop-color="rgba(0, 0, 0, 1)" offset="0%"/><stop stop-color="rgba(0, 0, 0, 1)" offset="100%"/></linearGradient></defs><path style="transform:translate(0, 0px); opacity:1" fill="url(#sw-gradient-0)" d="M0,160L48,143.3C96,127,192,93,288,86.7C384,80,480,100,576,120C672,140,768,160,864,156.7C960,153,1056,127,1152,103.3C1248,80,1344,60,1440,53.3C1536,47,1632,53,1728,66.7C1824,80,1920,100,2016,113.3C2112,127,2208,133,2304,136.7C2400,140,2496,140,2592,143.3C2688,147,2784,153,2880,143.3C2976,133,3072,107,3168,106.7C3264,107,3360,133,3456,140C3552,147,3648,133,3744,126.7C3840,120,3936,120,4032,110C4128,100,4224,80,4320,86.7C4416,93,4512,127,4608,133.3C4704,140,4800,120,4896,113.3C4992,107,5088,113,5184,110C5280,107,5376,93,5472,90C5568,87,5664,93,5760,100C5856,107,5952,113,6048,126.7C6144,140,6240,160,6336,143.3C6432,127,6528,73,6624,50C6720,27,6816,33,6864,36.7L6912,40L6912,200L6864,200C6816,200,6720,200,6624,200C6528,200,6432,200,6336,200C6240,200,6144,200,6048,200C5952,200,5856,200,5760,200C5664,200,5568,200,5472,200C5376,200,5280,200,5184,200C5088,200,4992,200,4896,200C4800,200,4704,200,4608,200C4512,200,4416,200,4320,200C4224,200,4128,200,4032,200C3936,200,3840,200,3744,200C3648,200,3552,200,3456,200C3360,200,3264,200,3168,200C3072,200,2976,200,2880,200C2784,200,2688,200,2592,200C2496,200,2400,200,2304,200C2208,200,2112,200,2016,200C1920,200,1824,200,1728,200C1632,200,1536,200,1440,200C1344,200,1248,200,1152,200C1056,200,960,200,864,200C768,200,672,200,576,200C480,200,384,200,288,200C192,200,96,200,48,200L0,200Z"/></svg>